<svg width="800" height="200" viewBox="0 0 800 200" fill="none" xmlns="http://www.w3.org/2000/svg">
<g clip-path="url(#clip0_1217_2208)">
<path d="M245.926 134.247C246.88 134.733 248.813 135.32 251.246 135.38C255.426 135.473 257.7 133.873 259.393 130.133L281.8 80.2399C280.88 79.7465 278.82 79.1932 277.16 79.1665C274.273 79.1065 270.4 79.6865 267.94 85.5799L260.686 102.673L246.453 79.5332C245.533 79.2532 243.286 78.8599 241.66 78.8599C236.62 78.8599 233.82 80.6999 230.9 83.8599L217.066 98.9599L228.193 116.453C230.253 119.647 232.96 121.273 237.353 121.273C240.24 121.273 242.64 120.6 243.746 120.08L230.346 99.9199L239.846 89.8532L255.433 114.28L245.933 134.26L245.926 134.247ZM216.526 115.373C216.526 119.053 215.08 121.173 207.886 121.173C206.933 121.173 206.106 121.113 205.306 120.987V72.1999C205.306 68.4865 206.566 64.6199 213.82 64.6199C214.74 64.6199 215.666 64.7132 216.526 64.8999V115.38V115.373ZM201.686 108.007C201.686 114.88 197.2 119.88 188.066 120.867C181.46 121.573 171.9 120.747 167.346 120.22C167.193 119.487 167.073 118.567 167.073 117.827C167.073 111.84 170.3 110.46 173.346 110.46C176.393 110.46 181.493 111.013 185.18 111.013C189.266 111.013 190.5 109.633 190.5 108.313C190.5 106.593 188.873 105.887 185.706 105.273L177.04 103.613C169.84 102.24 166 97.2665 166 91.9865C166 85.5732 170.546 80.1999 179.493 79.2199C186.253 78.4799 194.493 79.3132 199.013 79.8665C199.166 80.6332 199.26 81.3732 199.26 82.1665C199.26 88.1465 196.093 89.4399 193.053 89.4399C190.72 89.4399 187.086 89.0132 182.94 89.0132C178.793 89.0132 176.973 90.1799 176.973 91.5932C176.973 93.0999 178.633 93.7132 181.28 94.1732L189.546 95.7065C198.033 97.2732 201.686 102.087 201.686 108.013V108.007Z" fill="white"/>
<path d="M628.933 60H542.48C544.32 60 545.813 61.4933 545.813 63.3333V136.667C545.813 138.507 544.32 140 542.48 140H628.933C631.88 140 634.267 137.613 634.267 134.667V65.3333C634.267 62.3867 631.88 60 628.933 60ZM609.593 105.287H595.04V120.693C595.04 125.613 590.613 125.613 589.16 125.613C587.707 125.613 585.967 125.4 584.993 125.127L583.82 124.793V105.293H564.96L564.7 103.993C564.467 102.84 564.24 101.587 564.24 100.167C564.24 96.6867 566.08 94.6133 569.16 94.6133H583.82V79.3133C583.82 77.0733 584.86 74.3933 589.8 74.3933C591.42 74.3933 593.04 74.6467 593.867 74.88L595.04 75.2133V94.6067H613.8L614.06 95.9133C614.293 97.0667 614.513 98.3133 614.513 99.74C614.513 103.22 612.673 105.293 609.6 105.293L609.593 105.287Z" fill="white"/>
<path d="M365.266 86.54C360.24 86.54 355.606 89.4467 353.486 93.6867V107.273C355.606 111.513 360.24 114.42 365.266 114.42C372.646 114.42 378.146 108.767 378.146 100.44C378.146 92.1133 372.646 86.54 365.266 86.54ZM410.186 86.54C403.2 86.54 397.386 91.8 397.386 100.44C397.386 109.08 403.2 114.42 410.186 114.42C417.173 114.42 423.066 109 423.066 100.44C423.066 91.88 417.253 86.54 410.186 86.54ZM533.946 60H299.106C296.16 60 293.773 62.3867 293.773 65.3333V134.667C293.773 137.613 296.16 140 299.106 140H533.946C536.893 140 539.28 137.613 539.28 134.667V65.3333C539.28 62.3867 536.893 60 533.946 60ZM323.726 120.073C318.86 120.073 312.813 118.893 309.12 117.48C308.646 114.18 309.666 112.453 311.553 112.453C313.44 112.453 317.76 114.42 323.88 114.42C330.32 114.42 332.753 112.14 332.753 109.16C332.753 107.04 331.813 105.153 326 103.587L319.326 101.78C311.946 99.82 309.04 96.1267 309.04 91.5733C309.04 85.92 313.513 80.8933 323.646 80.8933C328.2 80.8933 333.853 81.9133 337.313 83.2467C337.94 86.4667 336.92 88.1933 334.96 88.1933C333.233 88.1933 329.306 86.5467 323.733 86.5467C317.766 86.5467 315.566 88.5867 315.566 91.26C315.566 93.1467 316.433 94.8733 321.773 96.3667L328.606 98.2533C336.226 100.373 339.286 103.907 339.286 108.933C339.286 114.82 334.733 120.087 323.74 120.087L323.726 120.073ZM366.526 120.073C360.873 120.073 356.24 117.407 353.493 113.633V129.493C353.493 130.987 352.626 131.927 350.113 131.927C348.86 131.927 347.68 131.767 347.053 131.613V81.5933C347.68 81.4333 348.86 81.28 350.113 81.28C352.626 81.28 353.493 82.22 353.493 83.7133V87.3267C356.24 83.56 360.873 80.8867 366.526 80.8867C376.026 80.8867 384.666 88.1933 384.666 100.44C384.666 112.687 376.026 120.073 366.526 120.073ZM410.193 120.073C399.12 120.073 390.873 111.593 390.873 100.44C390.873 89.2867 399.12 80.8867 410.193 80.8867C421.266 80.8867 429.593 89.2133 429.593 100.44C429.593 111.667 421.346 120.073 410.193 120.073ZM457.08 87.56C451.66 87.56 447.106 90.0733 444.28 95.96V117.24C444.28 118.813 443.413 119.673 440.826 119.673C439.726 119.673 438.473 119.513 437.84 119.36V81.5867C438.466 81.4267 439.726 81.2733 440.826 81.2733C443.42 81.2733 444.28 82.2133 444.28 83.7067V88.9667C447.973 83.3933 453.546 80.5667 460.533 81.5067C460.613 82.0533 460.846 83.2333 460.846 84.4133C460.846 87.0067 459.746 87.5533 457.08 87.5533V87.56ZM489.12 117.48C485.82 119.053 482.053 120.073 478.28 120.073C470.82 120.073 466.34 115.673 466.34 108.373V75.94C466.34 74.2933 467.28 73.1933 469.793 73.1933C470.893 73.1933 472.146 73.4267 472.78 73.5867V81.7533H487.466C487.546 82.3 487.7 83.4 487.7 84.3467C487.7 86.6267 486.76 87.4067 485.346 87.4067H472.78V107.907C472.78 112.307 474.82 114.427 478.986 114.427C482.753 114.427 484.873 112.78 486.68 112.78C488.486 112.78 489.506 114.353 489.113 117.493L489.12 117.48ZM508.2 120.073C503.333 120.073 497.286 118.893 493.593 117.48C493.12 114.18 494.14 112.453 496.026 112.453C497.913 112.453 502.233 114.42 508.353 114.42C514.793 114.42 517.226 112.14 517.226 109.16C517.226 107.04 516.286 105.153 510.473 103.587L503.8 101.78C496.42 99.82 493.513 96.1267 493.513 91.5733C493.513 85.92 497.986 80.8933 508.12 80.8933C512.673 80.8933 518.326 81.9133 521.786 83.2467C522.413 86.4667 521.393 88.1933 519.433 88.1933C517.706 88.1933 513.78 86.5467 508.2 86.5467C502.233 86.5467 500.033 88.5867 500.033 91.26C500.033 93.1467 500.9 94.8733 506.24 96.3667L513.073 98.2533C520.693 100.373 523.753 103.907 523.753 108.933C523.753 114.82 519.2 120.087 508.206 120.087L508.2 120.073Z" fill="white"/>
</g>
<defs>
<clipPath id="clip0_1217_2208">
<rect width="468.267" height="80" fill="white" transform="translate(166 60)"/>
</clipPath>
</defs>
</svg>
