<svg width="800" height="201" viewBox="0 0 800 201" fill="none" xmlns="http://www.w3.org/2000/svg">
<path d="M358.639 87.5467C351.897 87.5467 346.287 92.8054 346.287 101.443C346.287 110.001 351.897 115.42 358.639 115.42C365.458 115.42 371.068 110.001 371.068 101.443C371.068 92.8054 365.458 87.5467 358.639 87.5467ZM315.291 87.5467C310.441 87.5467 305.969 90.4526 303.924 94.6916V108.275C305.969 112.514 310.441 115.42 315.291 115.42C322.413 115.42 327.72 109.768 327.72 101.443C327.72 93.1986 322.413 87.5467 315.291 87.5467ZM478.066 61.0133H251.447C248.604 61.0133 246.301 63.3994 246.301 66.3453V135.661C246.301 138.607 248.604 140.993 251.447 140.993H478.066C480.91 140.993 483.213 138.607 483.213 135.661V66.3453C483.213 63.3994 480.91 61.0133 478.066 61.0133ZM275.206 121.072C270.509 121.072 264.674 119.892 261.11 118.479C260.653 115.18 261.638 113.454 263.458 113.454C265.202 113.454 269.448 115.42 275.353 115.42C281.568 115.42 283.916 113.14 283.916 110.161C283.916 108.042 283.009 106.155 277.399 104.589L270.96 102.783C263.838 100.823 261.033 97.1309 261.033 92.5788C261.033 86.9268 265.35 81.9014 275.128 81.9014C279.522 81.9014 284.978 82.9212 288.317 84.2542C288.921 87.4734 287.937 89.1996 286.046 89.1996C284.379 89.1996 280.59 87.5533 275.212 87.5533C269.454 87.5533 267.331 89.5928 267.331 92.2655C267.331 94.1517 268.168 95.8779 273.321 97.3709L279.915 99.2571C287.268 101.377 290.221 104.909 290.221 109.934C290.208 115.813 285.814 121.072 275.206 121.072ZM316.507 121.072C311.052 121.072 306.581 118.406 303.93 114.633V130.489C303.93 131.982 303.094 132.922 300.668 132.922C299.459 132.922 298.32 132.762 297.716 132.609V82.6012C298.32 82.4413 299.459 82.288 300.668 82.288C303.094 82.288 303.93 83.2278 303.93 84.7207V88.3331C306.581 84.5674 311.052 81.8948 316.507 81.8948C325.675 81.8948 334.012 89.1996 334.012 101.443C334.012 113.767 325.675 121.072 316.507 121.072ZM358.639 121.072C347.953 121.072 339.995 112.594 339.995 101.443C339.995 90.2127 347.953 81.8948 358.639 81.8948C369.402 81.8948 377.36 90.2193 377.36 101.443C377.36 112.594 369.402 121.072 358.639 121.072ZM403.884 88.5664C398.654 88.5664 394.26 91.0791 391.532 96.9643V118.239C391.532 119.812 390.696 120.672 388.2 120.672C387.138 120.672 385.929 120.512 385.318 120.358V82.6012C385.922 82.4413 387.138 82.288 388.2 82.288C390.702 82.288 391.532 83.2278 391.532 84.7207V89.9794C395.096 84.4075 400.474 81.5815 407.216 82.5213C407.294 83.0678 407.519 84.2475 407.519 85.4272C407.519 88.0199 406.457 88.5664 403.884 88.5664ZM434.802 118.479C431.618 120.052 427.983 121.072 424.342 121.072C417.143 121.072 412.82 116.673 412.82 109.375V76.9493C412.82 75.3031 413.727 74.2033 416.152 74.2033C417.214 74.2033 418.423 74.4366 419.034 74.5966V82.7612H433.207C433.284 83.3077 433.432 84.4075 433.432 85.3539C433.432 87.6333 432.525 88.4131 431.161 88.4131H419.034V108.908C419.034 113.307 421.003 115.426 425.024 115.426C428.659 115.426 430.704 113.78 432.448 113.78C434.275 113.767 435.182 115.34 434.802 118.479ZM453.214 121.072C448.518 121.072 442.683 119.892 439.119 118.479C438.662 115.18 439.647 113.454 441.467 113.454C443.211 113.454 447.457 115.42 453.362 115.42C459.577 115.42 461.925 113.14 461.925 110.161C461.925 108.042 461.018 106.155 455.408 104.589L448.968 102.783C441.847 100.823 439.042 97.1309 439.042 92.5788C439.042 86.9268 443.359 81.9014 453.137 81.9014C457.531 81.9014 462.987 82.9212 466.325 84.2542C466.93 87.4734 465.946 89.1996 464.055 89.1996C462.388 89.1996 458.599 87.5533 453.214 87.5533C447.457 87.5533 445.334 89.5928 445.334 92.2655C445.334 94.1517 446.17 95.8779 451.323 97.3709L457.917 99.2571C465.27 101.377 468.223 104.909 468.223 109.934C468.223 115.813 463.829 121.072 453.214 121.072Z" fill="white"/>
<path d="M200.129 135.241C201.049 135.728 202.914 136.314 205.262 136.374C209.296 136.468 211.49 134.868 213.124 131.129L234.746 81.2482C233.858 80.755 231.87 80.2018 230.269 80.1751C227.483 80.1151 223.745 80.695 221.371 86.5868L214.372 103.676L200.637 80.5417C199.749 80.2618 197.581 79.8685 196.011 79.8685C191.148 79.8685 188.446 81.7081 185.628 84.8673L172.273 99.9568L183.01 117.446C184.998 120.638 187.609 122.265 191.849 122.265C194.635 122.265 196.951 121.591 198.019 121.072L185.088 100.917L194.255 90.8524L209.296 115.273L200.129 135.241ZM171.758 116.373C171.758 120.052 170.362 122.171 163.42 122.171C162.5 122.171 161.703 122.111 160.931 121.985V73.2102C160.931 69.4978 162.147 65.6321 169.146 65.6321C170.034 65.6321 170.928 65.7254 171.758 65.912V116.373ZM157.437 109.008C157.437 115.88 153.108 120.878 144.294 121.865C137.919 122.571 128.693 121.745 124.3 121.218C124.152 120.485 124.036 119.565 124.036 118.825C124.036 112.84 127.149 111.461 130.089 111.461C133.145 111.461 137.951 112.014 141.509 112.014C145.452 112.014 146.642 110.634 146.642 109.314C146.642 107.595 145.073 106.888 142.017 106.275L133.654 104.616C126.706 103.243 123 98.2706 123 92.9986C123 86.5868 127.387 81.2149 136.021 80.2351C142.544 79.4953 150.496 80.3284 154.858 80.8816C155.006 81.6481 155.096 82.3879 155.096 83.181C155.096 89.1595 152.04 90.4525 149.106 90.4525C146.855 90.4525 143.348 90.026 139.347 90.026C135.281 90.026 133.589 91.1924 133.589 92.6053C133.589 94.1116 135.191 94.7248 137.745 95.1847L145.722 96.7176C153.912 98.2706 157.437 103.089 157.437 109.008Z" fill="white"/>
<path d="M671.438 61.0267L488.623 61C488.623 61 489.221 61.3266 489.665 61.7998C490.103 62.2664 490.225 62.5929 490.231 62.5996L671.438 62.6263C673.419 62.6263 675.034 64.2992 675.034 66.352V135.675C675.034 137.727 673.419 139.4 671.438 139.4L490.231 139.374C490.231 139.38 490.109 139.707 489.665 140.174C489.221 140.64 488.629 140.967 488.623 140.973L671.431 141C674.268 141 676.571 138.614 676.571 135.675V66.3587C676.578 63.4127 674.275 61.0267 671.438 61.0267Z" fill="white"/>
<path d="M517.984 115.487C515.347 116.786 512.329 117.633 509.312 117.633C503.342 117.633 499.765 113.987 499.765 107.935V81.0552C499.765 79.6889 500.518 78.7758 502.531 78.7758C503.413 78.7758 504.416 78.969 504.918 79.1023V85.874H516.665C516.73 86.3272 516.852 87.2403 516.852 88.0201C516.852 89.9063 516.099 90.5595 514.967 90.5595H504.918V107.549C504.918 111.194 506.552 112.954 509.878 112.954C512.895 112.954 514.587 111.588 516.035 111.588C517.547 111.581 518.299 112.887 517.984 115.487Z" fill="white"/>
<path d="M548.857 103.316H525.485C526.174 109.368 530.194 112.754 536.164 112.754C538.738 112.754 540.751 112.234 542.636 111.581C543.955 111.128 544.521 110.928 545.023 110.928C546.471 110.928 547.41 112.167 547.159 115.027C544.457 116.266 540.314 117.633 535.978 117.633C526.553 117.633 520.21 111.061 520.21 101.297C520.21 91.9257 526.933 85.1541 535.161 85.1541C544.457 85.1541 549.044 92.6388 549.044 100.19C549.044 101.103 548.98 102.21 548.857 103.316ZM525.485 99.1506H544.02C543.833 93.8119 540.501 89.6463 535.161 89.6463C530.51 89.6463 526.302 92.9654 525.485 99.1506Z" fill="white"/>
<path d="M581.938 98.4374V115.293C581.938 116.533 581.25 117.313 579.172 117.313C578.29 117.313 577.287 117.179 576.785 117.053V99.1506C576.785 92.8988 573.832 89.9062 569.374 89.9062C565.919 89.9062 562.149 92.3789 560.644 95.3115V115.293C560.644 116.533 559.955 117.313 557.877 117.313C556.996 117.313 555.993 117.179 555.491 117.053V85.7406C555.993 85.6073 556.996 85.4806 557.877 85.4806C559.949 85.4806 560.644 86.2604 560.644 87.5001V90.1661C562.844 87.3668 566.17 85.1541 570.635 85.1541C576.785 85.1541 581.938 89.193 581.938 98.4374Z" fill="white"/>
<path d="M616.31 98.4374V115.293C616.31 116.533 615.622 117.313 613.544 117.313C612.663 117.313 611.659 117.179 611.157 117.053V99.1506C611.157 92.8988 608.205 89.9062 603.746 89.9062C600.292 89.9062 596.522 92.3789 595.016 95.3115V115.293C595.016 116.533 594.328 117.313 592.25 117.313C591.369 117.313 590.365 117.179 589.863 117.053V85.7406C590.365 85.6073 591.369 85.4806 592.25 85.4806C594.322 85.4806 595.016 86.2604 595.016 87.5001V90.1661C597.217 87.3668 600.543 85.1541 605.007 85.1541C611.157 85.1541 616.31 89.193 616.31 98.4374Z" fill="white"/>
<path d="M623.419 78.649C623.419 76.6962 624.925 75.2632 626.688 75.2632C628.573 75.2632 630.02 76.6962 630.02 78.649C630.02 80.4086 628.573 82.0348 626.688 82.0348C624.925 82.0348 623.419 80.4086 623.419 78.649ZM624.108 117.053V87.5001C624.108 86.2604 624.796 85.4806 626.874 85.4806C627.755 85.4806 628.695 85.6139 629.197 85.7406V115.293C629.197 116.593 628.566 117.313 626.495 117.313C625.62 117.313 624.616 117.179 624.108 117.053Z" fill="white"/>
<path d="M635.758 115.486C635.379 112.754 636.196 111.321 637.708 111.321C639.155 111.321 642.668 112.947 647.57 112.947C652.723 112.947 654.672 111.061 654.672 108.588C654.672 106.829 653.92 105.269 649.268 103.969L643.929 102.47C638.023 100.843 635.701 97.7842 635.701 94.0052C635.701 89.3197 639.284 85.1541 647.383 85.1541C651.025 85.1541 655.554 86.0005 658.314 87.1069C658.815 89.7729 657.998 91.2059 656.429 91.2059C655.045 91.2059 651.906 89.8395 647.448 89.8395C642.674 89.8395 640.911 91.5325 640.911 93.7452C640.911 95.3048 641.6 96.7378 645.872 97.9775L651.34 99.5371C657.432 101.297 659.883 104.223 659.883 108.388C659.883 113.267 656.242 117.633 647.441 117.633C643.549 117.633 638.711 116.66 635.758 115.486Z" fill="white"/>
</svg>
