<svg width="800" height="201" viewBox="0 0 800 201" fill="none" xmlns="http://www.w3.org/2000/svg">
<g clip-path="url(#clip0_1217_2208)">
<path d="M664.667 61H508.867C508.867 61 509.467 61.3333 509.933 61.8C510.4 62.2667 510.533 62.6 510.533 62.6H664.667C666.733 62.6 668.4 64.2667 668.4 66.3333V135.667C668.4 137.733 666.733 139.4 664.667 139.4H510.533C510.533 139.4 510.4 139.733 509.933 140.2C509.467 140.667 508.867 141 508.867 141H664.667C667.6 141 670 138.6 670 135.667V66.3333C670 63.4 667.6 61 664.667 61Z" fill="white"/>
<path d="M209.933 135.267C210.867 135.733 212.8 136.333 215.267 136.4C219.467 136.467 221.733 134.867 223.4 131.133L245.8 81.2668C244.867 80.8001 242.8 80.2001 241.133 80.2001C238.267 80.1334 234.4 80.7334 231.933 86.6001L224.667 103.667L210.467 80.5334C209.533 80.2668 207.267 79.8668 205.667 79.8668C200.6 79.8668 197.8 81.7334 194.933 84.8668L181.067 99.9334L192.2 117.4C194.267 120.6 196.933 122.2 201.333 122.2C204.2 122.2 206.6 121.533 207.733 121L194.333 100.933L203.8 90.8668L219.4 115.267L209.933 135.267ZM180.533 116.4C180.533 120.067 179.067 122.2 171.867 122.2C170.933 122.2 170.067 122.133 169.267 122V73.2001C169.267 69.4668 170.533 65.6001 177.8 65.6001C178.733 65.6001 179.667 65.6668 180.533 65.8668V116.4ZM165.667 109C165.667 115.867 161.2 120.867 152.067 121.867C145.467 122.6 135.867 121.733 131.333 121.2C131.2 120.467 131.067 119.533 131.067 118.8C131.067 112.8 134.267 111.467 137.333 111.467C140.467 111.467 145.467 112 149.2 112C153.267 112 154.533 110.6 154.533 109.333C154.533 107.6 152.933 106.933 149.733 106.267L141.067 104.6C133.867 103.267 130 98.2668 130 93.0001C130 86.6001 134.533 81.2001 143.467 80.2668C150.2 79.5334 158.467 80.3334 163 80.9334C163.133 81.6668 163.267 82.4668 163.267 83.2668C163.267 89.2668 160.133 90.5334 157.067 90.5334C154.733 90.5334 151.133 90.1334 146.933 90.1334C142.733 90.1334 141 91.2668 141 92.7334C141 94.2668 142.667 94.8668 145.333 95.3334L153.6 96.8668C162 98.2668 165.667 103.067 165.667 109Z" fill="white"/>
<path d="M550.4 102.6C546.267 106.467 537.333 115.2 532.533 119.867H511.333C511.333 119.867 528.333 102.867 537.8 93.6C547.533 84.3333 552.4 82.2 570.267 82.2H635.333L621.267 96.2666H571.6C559 96.2666 556.2 97.1333 550.4 102.6ZM618.933 98.6H573.333C559.467 98.6 557 99.3333 551.067 105.267C545.467 110.867 536.467 119.867 536.467 119.867H556.2L560.933 115.133C564 112.067 565.6 111.733 572.133 111.733H605.8L618.933 98.6ZM624.333 119.8L662 82.1333H639.333L601.667 119.8H624.333Z" fill="white"/>
<path d="M374.2 87.5333C367.2 87.5333 361.4 92.8 361.4 101.467C361.4 110 367.2 115.467 374.2 115.467C381.267 115.467 387.067 110.067 387.067 101.467C387.067 92.8 381.267 87.5333 374.2 87.5333ZM329.267 87.5333C324.267 87.5333 319.6 90.4667 317.467 94.6667V108.267C319.6 112.533 324.2 115.4 329.267 115.4C336.667 115.4 342.133 109.733 342.133 101.4C342.133 93.2 336.667 87.5333 329.267 87.5333ZM497.933 61H263.133C260.2 61 257.8 63.4 257.8 66.3333V135.667C257.8 138.6 260.2 141 263.133 141H498C500.933 141 503.333 138.6 503.333 135.667V66.3333C503.267 63.4 500.867 61 497.933 61ZM287.733 121.067C282.867 121.067 276.8 119.867 273.133 118.467C272.667 115.2 273.667 113.467 275.6 113.467C277.4 113.467 281.8 115.4 287.933 115.4C294.4 115.4 296.8 113.133 296.8 110.133C296.8 108 295.867 106.133 290.067 104.533L283.4 102.733C276 100.8 273.133 97.0667 273.133 92.5333C273.133 86.8667 277.6 81.8667 287.733 81.8667C292.267 81.8667 297.933 82.8667 301.4 84.2C302 87.4 301 89.1333 299.067 89.1333C297.333 89.1333 293.4 87.4667 287.867 87.4667C281.867 87.4667 279.667 89.5333 279.667 92.2C279.667 94.0667 280.533 95.8 285.867 97.3333L292.667 99.2C300.267 101.333 303.333 104.867 303.333 109.867C303.267 115.8 298.733 121.067 287.733 121.067ZM330.533 121.067C324.867 121.067 320.267 118.4 317.467 114.6V130.467C317.467 131.933 316.6 132.933 314.067 132.933C312.8 132.933 311.6 132.8 311 132.6V82.6C311.6 82.4667 312.8 82.2667 314.067 82.2667C316.6 82.2667 317.467 83.2 317.467 84.7333V88.3333C320.2 84.5333 324.867 81.8667 330.533 81.8667C340.067 81.8667 348.667 89.2 348.667 101.4C348.667 113.8 340 121.067 330.533 121.067ZM374.2 121.067C363.133 121.067 354.867 112.6 354.867 101.467C354.867 90.2667 363.133 81.9333 374.2 81.9333C385.333 81.9333 393.6 90.2667 393.6 101.467C393.6 112.6 385.333 121.067 374.2 121.067ZM421.067 88.5333C415.667 88.5333 411.067 91.0667 408.267 96.9333V118.2C408.267 119.8 407.4 120.667 404.8 120.667C403.733 120.667 402.467 120.533 401.8 120.333V82.6C402.4 82.4667 403.667 82.2667 404.8 82.2667C407.4 82.2667 408.267 83.2 408.267 84.7333V90C411.933 84.4 417.533 81.6 424.533 82.5333C424.6 83.0667 424.867 84.2667 424.867 85.4667C424.867 88 423.733 88.5333 421.067 88.5333ZM453.133 118.467C449.867 120.067 446.067 121.067 442.267 121.067C434.8 121.067 430.333 116.667 430.333 109.333V76.9333C430.333 75.2667 431.267 74.2 433.8 74.2C434.867 74.2 436.133 74.4667 436.8 74.6V82.8H451.467C451.533 83.3333 451.733 84.4667 451.733 85.4C451.733 87.6667 450.8 88.4667 449.4 88.4667H436.867V108.933C436.867 113.333 438.933 115.467 443.067 115.467C446.867 115.467 448.933 113.8 450.733 113.8C452.533 113.8 453.533 115.333 453.133 118.467ZM472.2 121.067C467.333 121.067 461.267 119.867 457.6 118.467C457.133 115.2 458.133 113.467 460.067 113.467C461.867 113.467 466.267 115.4 472.4 115.4C478.867 115.4 481.267 113.133 481.267 110.133C481.267 108 480.333 106.133 474.533 104.533L467.867 102.733C460.467 100.8 457.6 97.0667 457.6 92.5333C457.6 86.8667 462.067 81.8667 472.2 81.8667C476.733 81.8667 482.4 82.8667 485.867 84.2C486.467 87.4 485.467 89.1333 483.533 89.1333C481.8 89.1333 477.867 87.4667 472.333 87.4667C466.333 87.4667 464.133 89.5333 464.133 92.2C464.133 94.0667 465 95.8 470.333 97.3333L477.133 99.2C484.733 101.333 487.8 104.867 487.8 109.867C487.733 115.8 483.2 121.067 472.2 121.067Z" fill="white"/>
</g>
<defs>
<clipPath id="clip0_1217_2208">
<rect width="540" height="80" fill="white" transform="translate(130 61)"/>
</clipPath>
</defs>
</svg>
