<svg width="800" height="201" viewBox="0 0 800 201" fill="none" xmlns="http://www.w3.org/2000/svg">
<g clip-path="url(#clip0_1217_2208)">
<path d="M669.667 61H504.867C504.867 61 505.467 61.3333 505.933 61.8C506.4 62.2667 506.533 62.6 506.533 62.6H669.6C671.667 62.6 673.333 64.2667 673.333 66.3333V135.667C673.333 137.733 671.667 139.4 669.6 139.4H506.533C506.533 139.4 506.4 139.733 505.933 140.2C505.467 140.667 504.867 141 504.867 141H669.6C672.533 141 674.933 138.6 674.933 135.667V66.3333C675 63.4 672.6 61 669.667 61Z" fill="white"/>
<path d="M543.867 98.4V115.267C543.867 116.533 543.133 117.267 541 117.267C540.067 117.267 539.067 117.133 538.533 117V99.1333C538.533 92.8667 535.467 89.8667 530.867 89.8667C527.267 89.8667 523.4 92.3333 521.8 95.2667V115.267C521.8 116.533 521.067 117.267 518.933 117.267C518 117.267 517 117.133 516.467 117V85.6667C517 85.5333 518 85.4 518.933 85.4C521.067 85.4 521.8 86.2 521.8 87.4V90.0667C524.067 87.2667 527.533 85.0667 532.133 85.0667C538.533 85.1333 543.867 89.2 543.867 98.4Z" fill="white"/>
<path d="M579.934 103.333H555.733C556.467 109.4 560.6 112.8 566.8 112.8C569.467 112.8 571.533 112.267 573.533 111.6C574.933 111.133 575.467 110.933 576 110.933C577.467 110.933 578.467 112.2 578.2 115.067C575.4 116.333 571.134 117.667 566.6 117.667C556.867 117.667 550.267 111.067 550.267 101.333C550.267 91.9333 557.2 85.2 565.733 85.2C575.4 85.2 580.134 92.6666 580.134 100.267C580.067 101.067 580.067 102.2 579.934 103.333ZM555.667 99.1333H574.867C574.667 93.8 571.2 89.6 565.667 89.6C560.867 89.6666 556.533 92.9333 555.667 99.1333Z" fill="white"/>
<path d="M629.2 86.2666L620.933 115C620.4 116.8 619.067 117.267 617.067 117.267C615.933 117.267 614.867 117.067 613.933 116.8L606.067 91.4666L598.667 115C598.067 116.8 596.667 117.267 594.867 117.267C593.733 117.267 592.533 117.067 591.6 116.8L582.733 86.1999C583.533 85.7999 584.933 85.3999 586.133 85.3999C587.6 85.3999 588.4 85.8666 588.8 87.2666L595.067 111.267H595.133L602.867 86.1333C603.8 85.5999 604.933 85.3333 606.2 85.3333C608.2 85.3333 609.333 85.7999 609.933 87.6666L617.067 111.267H617.133L623.2 87.2666C623.6 85.8666 624.4 85.3999 625.867 85.3999C627.067 85.4666 628.4 85.8666 629.2 86.2666Z" fill="white"/>
<path d="M632.733 115.467C632.333 112.733 633.2 111.333 634.733 111.333C636.2 111.333 639.867 112.933 644.933 112.933C650.267 112.933 652.267 111.067 652.267 108.6C652.267 106.867 651.467 105.267 646.667 104L641.133 102.533C635 100.933 632.6 97.8666 632.6 94.0666C632.6 89.3999 636.333 85.2 644.733 85.2C648.533 85.2 653.2 86.0666 656.067 87.1333C656.6 89.8 655.733 91.2666 654.133 91.2666C652.733 91.2666 649.467 89.8666 644.8 89.8666C639.867 89.8666 638 91.5333 638 93.8C638 95.3333 638.733 96.7999 643.133 97.9999L648.8 99.5333C655.133 101.267 657.667 104.2 657.667 108.4C657.667 113.267 653.867 117.667 644.8 117.667C640.8 117.667 635.733 116.667 632.733 115.467Z" fill="white"/>
<path d="M205.933 135.267C206.867 135.733 208.8 136.333 211.267 136.4C215.467 136.467 217.733 134.867 219.4 131.133L241.8 81.2668C240.867 80.8001 238.8 80.2001 237.133 80.2001C234.267 80.1334 230.4 80.7334 227.933 86.6001L220.667 103.667L206.467 80.5334C205.533 80.2668 203.267 79.8668 201.667 79.8668C196.6 79.8668 193.8 81.7334 190.933 84.8668L177.067 99.9334L188.2 117.4C190.267 120.6 192.933 122.2 197.333 122.2C200.2 122.2 202.6 121.533 203.733 121L190.333 100.933L199.8 90.8668L215.4 115.267L205.933 135.267ZM176.533 116.4C176.533 120.067 175.067 122.2 167.867 122.2C166.933 122.2 166.067 122.133 165.267 122V73.2001C165.267 69.4668 166.533 65.6001 173.8 65.6001C174.733 65.6001 175.667 65.6668 176.533 65.8668V116.4ZM161.667 109C161.667 115.867 157.2 120.867 148.067 121.867C141.467 122.6 131.867 121.733 127.333 121.2C127.2 120.467 127.067 119.533 127.067 118.8C127.067 112.8 130.267 111.467 133.333 111.467C136.467 111.467 141.467 112 145.2 112C149.267 112 150.533 110.6 150.533 109.333C150.533 107.6 148.933 106.933 145.733 106.267L137.067 104.6C129.867 103.267 126 98.2668 126 93.0001C126 86.6001 130.533 81.2001 139.467 80.2668C146.2 79.5334 154.467 80.3334 159 80.9334C159.133 81.6668 159.267 82.4668 159.267 83.2668C159.267 89.2668 156.133 90.5334 153.067 90.5334C150.733 90.5334 147.133 90.1334 142.933 90.1334C138.733 90.1334 137 91.2668 137 92.7334C137 94.2668 138.667 94.8668 141.333 95.3334L149.6 96.8668C158 98.2668 161.667 103.067 161.667 109Z" fill="white"/>
<path d="M325.267 87.5333C320.267 87.5333 315.6 90.4667 313.467 94.6667V108.267C315.6 112.533 320.2 115.4 325.267 115.4C332.667 115.4 338.133 109.733 338.133 101.4C338.133 93.2 332.667 87.5333 325.267 87.5333ZM493.933 61H259.133C256.2 61 253.8 63.4 253.8 66.3333V135.667C253.8 138.6 256.2 141 259.133 141H494C496.933 141 499.333 138.6 499.333 135.667V66.3333C499.267 63.4 496.867 61 493.933 61ZM283.733 121.067C278.867 121.067 272.8 119.867 269.133 118.467C268.667 115.2 269.667 113.467 271.6 113.467C273.4 113.467 277.8 115.4 283.933 115.4C290.4 115.4 292.8 113.133 292.8 110.133C292.8 108 291.867 106.133 286.067 104.533L279.4 102.733C272 100.8 269.133 97.0667 269.133 92.5333C269.133 86.8667 273.6 81.8667 283.733 81.8667C288.267 81.8667 293.933 82.8667 297.4 84.2C298 87.4 297 89.1333 295.067 89.1333C293.333 89.1333 289.4 87.4667 283.867 87.4667C277.867 87.4667 275.667 89.5333 275.667 92.2C275.667 94.0667 276.533 95.8 281.867 97.3333L288.667 99.2C296.267 101.333 299.333 104.867 299.333 109.867C299.267 115.8 294.733 121.067 283.733 121.067ZM326.533 121.067C320.867 121.067 316.267 118.4 313.467 114.6V130.467C313.467 131.933 312.6 132.933 310.067 132.933C308.8 132.933 307.6 132.8 307 132.6V82.6C307.6 82.4667 308.8 82.2667 310.067 82.2667C312.6 82.2667 313.467 83.2 313.467 84.7333V88.3333C316.2 84.5333 320.867 81.8667 326.533 81.8667C336.067 81.8667 344.667 89.2 344.667 101.4C344.667 113.8 336 121.067 326.533 121.067ZM370.2 121.067C359.133 121.067 350.867 112.6 350.867 101.467C350.867 90.2667 359.133 81.9333 370.2 81.9333C381.333 81.9333 389.6 90.2667 389.6 101.467C389.6 112.6 381.333 121.067 370.2 121.067ZM417.067 88.5333C411.667 88.5333 407.067 91.0667 404.267 96.9333V118.2C404.267 119.8 403.4 120.667 400.8 120.667C399.733 120.667 398.467 120.533 397.8 120.333V82.6C398.4 82.4667 399.667 82.2667 400.8 82.2667C403.4 82.2667 404.267 83.2 404.267 84.7333V90C407.933 84.4 413.533 81.6 420.533 82.5333C420.6 83.0667 420.867 84.2667 420.867 85.4667C420.867 88 419.733 88.5333 417.067 88.5333ZM449.133 118.467C445.867 120.067 442.067 121.067 438.267 121.067C430.8 121.067 426.333 116.667 426.333 109.333V76.9333C426.333 75.2667 427.267 74.2 429.8 74.2C430.867 74.2 432.133 74.4667 432.8 74.6V82.8H447.467C447.533 83.3333 447.733 84.4667 447.733 85.4C447.733 87.6667 446.8 88.4667 445.4 88.4667H432.867V108.933C432.867 113.333 434.933 115.467 439.067 115.467C442.867 115.467 444.933 113.8 446.733 113.8C448.533 113.8 449.533 115.333 449.133 118.467ZM468.2 121.067C463.333 121.067 457.267 119.867 453.6 118.467C453.133 115.2 454.133 113.467 456.067 113.467C457.867 113.467 462.267 115.4 468.4 115.4C474.867 115.4 477.267 113.133 477.267 110.133C477.267 108 476.333 106.133 470.533 104.533L463.867 102.733C456.467 100.8 453.6 97.0667 453.6 92.5333C453.6 86.8667 458.067 81.8667 468.2 81.8667C472.733 81.8667 478.4 82.8667 481.867 84.2C482.467 87.4 481.467 89.1333 479.533 89.1333C477.8 89.1333 473.867 87.4667 468.333 87.4667C462.333 87.4667 460.133 89.5333 460.133 92.2C460.133 94.0667 461 95.8 466.333 97.3333L473.133 99.2C480.733 101.333 483.8 104.867 483.8 109.867C483.733 115.8 479.2 121.067 468.2 121.067ZM370.2 87.5333C363.2 87.5333 357.4 92.8 357.4 101.467C357.4 110 363.2 115.467 370.2 115.467C377.267 115.467 383.067 110.067 383.067 101.467C383.067 92.8 377.267 87.5333 370.2 87.5333Z" fill="white"/>
</g>
<defs>
<clipPath id="clip0_1217_2208">
<rect width="549" height="80" fill="white" transform="translate(126 61)"/>
</clipPath>
</defs>
</svg>
