<svg width="800" height="201" viewBox="0 0 800 201" fill="none" xmlns="http://www.w3.org/2000/svg">
<g clip-path="url(#clip0_1217_2208)">
<path d="M682.333 61H491.867C491.867 61 492.467 61.3333 492.933 61.8C493.4 62.2667 493.533 62.6 493.533 62.6H682.333C684.4 62.6 686.067 64.2667 686.067 66.3333V135.667C686.067 137.733 684.4 139.4 682.333 139.4H493.533C493.533 139.4 493.4 139.733 492.933 140.2C492.467 140.667 491.867 141 491.867 141H682.333C685.267 141 687.667 138.6 687.667 135.667V66.3333C687.667 63.4 685.267 61 682.333 61Z" fill="white"/>
<path d="M528.267 97V117.067C527.733 117.2 526.8 117.333 525.867 117.333C523.933 117.333 523 116.6 523 115.333V112.6C520.2 115.8 516.533 117.667 511.933 117.667C505 117.667 501.133 113.133 501.133 108.133C501.133 100.6 509.2 97.2667 522.933 98.2V97.0667C522.933 91.9333 521.4 89.8 515.467 89.8C513 89.8 509.667 90.5333 507.933 91C506.867 91.2667 506.133 91.5333 505.467 91.5333C504 91.5333 503 90.2 503.533 87.4667C506.733 86.2667 511.333 85.2 515.8 85.2C524.933 85.1333 528.267 89.2667 528.267 97ZM522.933 107.933V102C513.933 101.333 506.467 102.533 506.467 107.933C506.467 110.667 508.733 113.133 512.867 113.133C517.067 113.133 520.667 111.067 522.933 107.933Z" fill="white"/>
<path d="M534.667 101.333C534.667 92 541.533 85.1333 550.533 85.1333C554.733 85.1333 558.666 86.3333 561.4 87.6C561.866 90.5333 560.933 91.7333 559.666 91.7333C557.4 91.7333 555.466 89.8666 550.733 89.8666C544.866 89.8666 540.066 94.2 540.066 101.4C540.066 108.467 544.866 112.933 550.733 112.933C555.4 112.933 557.4 111 559.466 111C560.866 111 561.8 112.267 561.4 115.133C558.666 116.533 554.733 117.667 550.533 117.667C541.533 117.667 534.667 110.6 534.667 101.333Z" fill="white"/>
<path d="M586.067 115.467C583.333 116.8 580.2 117.6 577.067 117.6C570.867 117.6 567.2 113.933 567.2 107.867V81.0667C567.2 79.6667 568 78.8 570.067 78.8C571 78.8 572 79 572.533 79.1334V85.9334H584.733C584.8 86.4001 584.933 87.3334 584.933 88.0667C584.933 89.9334 584.133 90.6001 583 90.6001H572.6V107.6C572.6 111.267 574.267 113 577.733 113C580.867 113 582.6 111.6 584.133 111.6C585.667 111.6 586.4 112.867 586.067 115.467Z" fill="white"/>
<path d="M590.267 78.6666C590.267 76.7333 591.8 75.2666 593.667 75.2666C595.6 75.2666 597.133 76.6666 597.133 78.6666C597.133 80.3999 595.667 82.0666 593.667 82.0666C591.8 81.9999 590.267 80.3999 590.267 78.6666ZM590.933 117.067V87.4666C590.933 86.1999 591.667 85.4666 593.8 85.4666C594.733 85.4666 595.667 85.5999 596.2 85.7333V115.267C596.2 116.6 595.533 117.267 593.4 117.267C592.533 117.333 591.467 117.2 590.933 117.067Z" fill="white"/>
<path d="M602.667 101.333C602.667 92 609.533 85.1333 618.667 85.1333C627.933 85.1333 634.733 92.0666 634.733 101.333C634.733 110.6 627.867 117.6 618.667 117.6C609.533 117.667 602.667 110.6 602.667 101.333ZM629.4 101.333C629.4 94.2 624.6 89.8 618.733 89.8C612.933 89.8 608.133 94.1333 608.133 101.333C608.133 108.4 612.933 112.933 618.733 112.933C624.533 112.933 629.4 108.467 629.4 101.333Z" fill="white"/>
<path d="M668.933 98.4V115.267C668.933 116.533 668.2 117.267 666.067 117.267C665.133 117.267 664.133 117.133 663.6 117V99.1333C663.6 92.8667 660.533 89.8667 655.933 89.8667C652.333 89.8667 648.467 92.3333 646.867 95.2667V115.267C646.867 116.533 646.133 117.267 644 117.267C643.067 117.267 642.067 117.133 641.533 117V85.6667C642.067 85.5333 643.067 85.4 644 85.4C646.133 85.4 646.867 86.2 646.867 87.4V90.0667C649.133 87.2667 652.6 85.0667 657.2 85.0667C663.6 85.1333 668.933 89.2 668.933 98.4Z" fill="white"/>
<path d="M357.2 87.5333C350.2 87.5333 344.4 92.8 344.4 101.467C344.4 110 350.2 115.467 357.2 115.467C364.267 115.467 370.067 110.067 370.067 101.467C370.067 92.8 364.267 87.5333 357.2 87.5333ZM312.267 87.5333C307.267 87.5333 302.6 90.4667 300.467 94.6667V108.267C302.6 112.533 307.2 115.4 312.267 115.4C319.667 115.4 325.133 109.733 325.133 101.4C325.133 93.2 319.667 87.5333 312.267 87.5333ZM480.933 61H246.133C243.2 61 240.8 63.4 240.8 66.3333V135.667C240.8 138.6 243.2 141 246.133 141H481C483.933 141 486.333 138.6 486.333 135.667V66.3333C486.267 63.4 483.867 61 480.933 61ZM270.733 121.067C265.867 121.067 259.8 119.867 256.133 118.467C255.667 115.2 256.667 113.467 258.6 113.467C260.4 113.467 264.8 115.4 270.933 115.4C277.4 115.4 279.8 113.133 279.8 110.133C279.8 108 278.867 106.133 273.067 104.533L266.4 102.733C259 100.8 256.133 97.0667 256.133 92.5333C256.133 86.8667 260.6 81.8667 270.733 81.8667C275.267 81.8667 280.933 82.8667 284.4 84.2C285 87.4 284 89.1333 282.067 89.1333C280.333 89.1333 276.4 87.4667 270.867 87.4667C264.867 87.4667 262.667 89.5333 262.667 92.2C262.667 94.0667 263.533 95.8 268.867 97.3333L275.667 99.2C283.267 101.333 286.333 104.867 286.333 109.867C286.267 115.8 281.733 121.067 270.733 121.067ZM313.533 121.067C307.867 121.067 303.267 118.4 300.467 114.6V130.467C300.467 131.933 299.6 132.933 297.067 132.933C295.8 132.933 294.6 132.8 294 132.6V82.6C294.6 82.4667 295.8 82.2667 297.067 82.2667C299.6 82.2667 300.467 83.2 300.467 84.7333V88.3333C303.2 84.5333 307.867 81.8667 313.533 81.8667C323.067 81.8667 331.667 89.2 331.667 101.4C331.667 113.8 323 121.067 313.533 121.067ZM357.2 121.067C346.133 121.067 337.867 112.6 337.867 101.467C337.867 90.2667 346.133 81.9333 357.2 81.9333C368.333 81.9333 376.6 90.2667 376.6 101.467C376.6 112.6 368.333 121.067 357.2 121.067ZM404.067 88.5333C398.667 88.5333 394.067 91.0667 391.267 96.9333V118.2C391.267 119.8 390.4 120.667 387.8 120.667C386.733 120.667 385.467 120.533 384.8 120.333V82.6C385.4 82.4667 386.667 82.2667 387.8 82.2667C390.4 82.2667 391.267 83.2 391.267 84.7333V90C394.933 84.4 400.533 81.6 407.533 82.5333C407.6 83.0667 407.867 84.2667 407.867 85.4667C407.867 88 406.733 88.5333 404.067 88.5333ZM436.133 118.467C432.867 120.067 429.067 121.067 425.267 121.067C417.8 121.067 413.333 116.667 413.333 109.333V76.9333C413.333 75.2667 414.267 74.2 416.8 74.2C417.867 74.2 419.133 74.4667 419.8 74.6V82.8H434.467C434.533 83.3333 434.733 84.4667 434.733 85.4C434.733 87.6667 433.8 88.4667 432.4 88.4667H419.867V108.933C419.867 113.333 421.933 115.467 426.067 115.467C429.867 115.467 431.933 113.8 433.733 113.8C435.533 113.8 436.533 115.333 436.133 118.467ZM455.2 121.067C450.333 121.067 444.267 119.867 440.6 118.467C440.133 115.2 441.133 113.467 443.067 113.467C444.867 113.467 449.267 115.4 455.4 115.4C461.867 115.4 464.267 113.133 464.267 110.133C464.267 108 463.333 106.133 457.533 104.533L450.867 102.733C443.467 100.8 440.6 97.0667 440.6 92.5333C440.6 86.8667 445.067 81.8667 455.2 81.8667C459.733 81.8667 465.4 82.8667 468.867 84.2C469.467 87.4 468.467 89.1333 466.533 89.1333C464.8 89.1333 460.867 87.4667 455.333 87.4667C449.333 87.4667 447.133 89.5333 447.133 92.2C447.133 94.0667 448 95.8 453.333 97.3333L460.133 99.2C467.733 101.333 470.8 104.867 470.8 109.867C470.733 115.8 466.2 121.067 455.2 121.067Z" fill="white"/>
<path d="M192.933 135.267C193.867 135.733 195.8 136.333 198.267 136.4C202.467 136.467 204.733 134.867 206.4 131.133L228.8 81.2668C227.867 80.8001 225.8 80.2001 224.133 80.2001C221.267 80.1334 217.4 80.7334 214.933 86.6001L207.667 103.667L193.467 80.5334C192.533 80.2668 190.267 79.8668 188.667 79.8668C183.6 79.8668 180.8 81.7334 177.933 84.8668L164.067 99.9334L175.2 117.4C177.267 120.6 179.933 122.2 184.333 122.2C187.2 122.2 189.6 121.533 190.733 121L177.333 100.933L186.8 90.8668L202.4 115.267L192.933 135.267ZM163.533 116.4C163.533 120.067 162.067 122.2 154.867 122.2C153.933 122.2 153.067 122.133 152.267 122V73.2001C152.267 69.4668 153.533 65.6001 160.8 65.6001C161.733 65.6001 162.667 65.6668 163.533 65.8668V116.4ZM148.667 109C148.667 115.867 144.2 120.867 135.067 121.867C128.467 122.6 118.867 121.733 114.333 121.2C114.2 120.467 114.067 119.533 114.067 118.8C114.067 112.8 117.267 111.467 120.333 111.467C123.467 111.467 128.467 112 132.2 112C136.267 112 137.533 110.6 137.533 109.333C137.533 107.6 135.933 106.933 132.733 106.267L124.067 104.6C116.867 103.267 113 98.2668 113 93.0001C113 86.6001 117.533 81.2001 126.467 80.2668C133.2 79.5334 141.467 80.3334 146 80.9334C146.133 81.6668 146.267 82.4668 146.267 83.2668C146.267 89.2668 143.133 90.5334 140.067 90.5334C137.733 90.5334 134.133 90.1334 129.933 90.1334C125.733 90.1334 124 91.2668 124 92.7334C124 94.2668 125.667 94.8668 128.333 95.3334L136.6 96.8668C145 98.2668 148.667 103.067 148.667 109Z" fill="white"/>
</g>
<defs>
<clipPath id="clip0_1217_2208">
<rect width="574.667" height="80" fill="white" transform="translate(113 61)"/>
</clipPath>
</defs>
</svg>
