<svg width="800" height="201" viewBox="0 0 800 201" fill="none" xmlns="http://www.w3.org/2000/svg">
<g clip-path="url(#clip0_1217_2208)">
<path d="M704.4 61H469.867C469.867 61 470.467 61.3333 470.933 61.8C471.4 62.2667 471.533 62.6 471.533 62.6H704.4C706.467 62.6 708.133 64.2667 708.133 66.3333V135.667C708.133 137.733 706.467 139.4 704.4 139.4H471.533C471.533 139.4 471.4 139.733 470.933 140.2C470.467 140.667 469.867 141 469.867 141H704.4C707.333 141 709.733 138.6 709.733 135.667V66.3333C709.733 63.4 707.4 61 704.4 61Z" fill="white"/>
<path d="M488.933 84.7334V86.6001H499.533C499.6 87.0668 499.733 88.0001 499.733 88.7334C499.733 90.6001 499 91.2668 497.8 91.2668H488.933V115.067C488.933 116.4 488.2 117.067 486.067 117.067C485.133 117.067 484.133 116.933 483.6 116.8V91.3334H478.933C478.867 90.9334 478.733 89.9334 478.733 89.2001C478.733 87.3334 479.533 86.6668 480.667 86.6668H483.6V85.2001C483.6 78.0001 488 74.6001 493.8 74.6001C496.533 74.6001 499.667 75.2668 501.4 76.0001C501.533 76.5334 501.533 77.0668 501.533 77.4001C501.533 79.4001 500.667 80.2001 499.667 80.2001C498.8 80.2001 497 79.3334 494.067 79.3334C490.867 79.2001 488.933 80.8001 488.933 84.7334Z" fill="white"/>
<path d="M501.8 101.334C501.8 92.0002 508.667 85.1335 517.8 85.1335C527.067 85.1335 533.867 92.0669 533.867 101.334C533.867 110.6 527 117.6 517.8 117.6C508.667 117.667 501.8 110.6 501.8 101.334ZM528.467 101.334C528.467 94.2002 523.667 89.8002 517.8 89.8002C512 89.8002 507.2 94.1335 507.2 101.334C507.2 108.4 512 112.934 517.8 112.934C523.667 112.934 528.467 108.467 528.467 101.334Z" fill="white"/>
<path d="M538.667 101.334C538.667 92.0002 545.533 85.1335 554.667 85.1335C563.933 85.1335 570.733 92.0669 570.733 101.334C570.733 110.6 563.867 117.6 554.667 117.6C545.533 117.667 538.667 110.6 538.667 101.334ZM565.4 101.334C565.4 94.2002 560.6 89.8002 554.733 89.8002C548.933 89.8002 544.133 94.1335 544.133 101.334C544.133 108.4 548.933 112.934 554.733 112.934C560.6 112.934 565.4 108.467 565.4 101.334Z" fill="white"/>
<path d="M596.2 115.467C593.467 116.8 590.333 117.6 587.2 117.6C581 117.6 577.333 113.933 577.333 107.867V81.0667C577.333 79.6667 578.133 78.8 580.2 78.8C581.133 78.8 582.133 79 582.667 79.1334V85.9334H594.867C594.933 86.4 595.067 87.3334 595.067 88.0667C595.067 89.9334 594.267 90.6 593.133 90.6H582.733V107.6C582.733 111.267 584.4 113 587.867 113C591 113 592.733 111.6 594.267 111.6C595.733 111.6 596.533 112.867 596.2 115.467Z" fill="white"/>
<path d="M632.267 101.333C632.267 111.533 625.133 117.6 617.2 117.6C612.533 117.6 608.667 115.4 606.4 112.267V115.267C606.4 116.6 605.667 117.267 603.533 117.267C602.6 117.267 601.6 117.133 601.067 117V76.5334C601.067 75.2668 601.8 74.5334 603.933 74.5334C604.867 74.5334 605.867 74.6668 606.4 74.8001V90.4668C608.667 87.3334 612.533 85.1334 617.2 85.1334C625.067 85.1334 632.267 91.2001 632.267 101.333ZM626.867 101.333C626.867 94.4668 622.333 89.8001 616.2 89.8001C612.067 89.8001 608.2 92.2001 606.467 95.7334V107C608.2 110.533 612.067 112.933 616.2 112.933C622.267 112.933 626.867 108.267 626.867 101.333Z" fill="white"/>
<path d="M663.667 97V117.067C663.133 117.2 662.2 117.333 661.267 117.333C659.333 117.333 658.4 116.6 658.4 115.333V112.6C655.6 115.8 651.933 117.667 647.333 117.667C640.4 117.667 636.533 113.133 636.533 108.133C636.533 100.6 644.6 97.2667 658.333 98.2V97.0667C658.333 91.9333 656.8 89.8 650.867 89.8C648.4 89.8 645.067 90.5333 643.333 91C642.267 91.2667 641.533 91.5333 640.867 91.5333C639.4 91.5333 638.4 90.2 638.933 87.4667C642.133 86.2667 646.733 85.2 651.2 85.2C660.333 85.1333 663.667 89.2667 663.667 97ZM658.333 107.933V102C649.333 101.333 641.867 102.533 641.867 107.933C641.867 110.667 644.133 113.133 648.267 113.133C652.4 113.133 656.067 111.067 658.333 107.933Z" fill="white"/>
<path d="M671.933 117.067V76.5334C671.933 75.2668 672.667 74.5334 674.8 74.5334C675.733 74.5334 676.733 74.6668 677.267 74.8001V115.267C677.267 116.6 676.533 117.267 674.4 117.267C673.533 117.333 672.467 117.2 671.933 117.067Z" fill="white"/>
<path d="M685.667 117.067V76.5334C685.667 75.2668 686.4 74.5334 688.533 74.5334C689.467 74.5334 690.467 74.6668 691 74.8001V115.267C691 116.6 690.267 117.267 688.133 117.267C687.267 117.333 686.2 117.2 685.667 117.067Z" fill="white"/>
<path d="M170.933 135.267C171.867 135.733 173.8 136.333 176.267 136.4C180.467 136.467 182.733 134.867 184.4 131.133L206.8 81.2668C205.867 80.8001 203.8 80.2001 202.133 80.2001C199.267 80.1334 195.4 80.7334 192.933 86.6001L185.667 103.667L171.467 80.5334C170.533 80.2668 168.267 79.8668 166.667 79.8668C161.6 79.8668 158.8 81.7334 155.933 84.8668L142.067 99.9334L153.2 117.4C155.267 120.6 157.933 122.2 162.333 122.2C165.2 122.2 167.6 121.533 168.733 121L155.333 100.933L164.8 90.8668L180.4 115.267L170.933 135.267ZM141.533 116.4C141.533 120.067 140.067 122.2 132.867 122.2C131.933 122.2 131.067 122.133 130.267 122V73.2001C130.267 69.4668 131.533 65.6001 138.8 65.6001C139.733 65.6001 140.667 65.6668 141.533 65.8668V116.4ZM126.667 109C126.667 115.867 122.2 120.867 113.067 121.867C106.467 122.6 96.8667 121.733 92.3333 121.2C92.2 120.467 92.0667 119.533 92.0667 118.8C92.0667 112.8 95.2667 111.467 98.3333 111.467C101.467 111.467 106.467 112 110.2 112C114.267 112 115.533 110.6 115.533 109.333C115.533 107.6 113.933 106.933 110.733 106.267L102.067 104.6C94.8667 103.267 91 98.2668 91 93.0001C91 86.6001 95.5333 81.2001 104.467 80.2668C111.2 79.5334 119.467 80.3334 124 80.9334C124.133 81.6668 124.267 82.4668 124.267 83.2668C124.267 89.2668 121.133 90.5334 118.067 90.5334C115.733 90.5334 112.133 90.1334 107.933 90.1334C103.733 90.1334 102 91.2668 102 92.7334C102 94.2668 103.667 94.8668 106.333 95.3334L114.6 96.8668C123 98.2668 126.667 103.067 126.667 109Z" fill="white"/>
<path d="M290.267 87.5333C285.267 87.5333 280.6 90.4667 278.467 94.6667V108.267C280.6 112.533 285.2 115.4 290.267 115.4C297.667 115.4 303.133 109.733 303.133 101.4C303.133 93.2 297.667 87.5333 290.267 87.5333ZM335.2 87.5333C328.2 87.5333 322.4 92.8 322.4 101.467C322.4 110 328.2 115.467 335.2 115.467C342.267 115.467 348.067 110.067 348.067 101.467C348.067 92.8 342.267 87.5333 335.2 87.5333ZM458.933 61H224.133C221.2 61 218.8 63.4 218.8 66.3333V135.667C218.8 138.6 221.2 141 224.133 141H459C461.933 141 464.333 138.6 464.333 135.667V66.3333C464.267 63.4 461.867 61 458.933 61ZM248.733 121.067C243.867 121.067 237.8 119.867 234.133 118.467C233.667 115.2 234.667 113.467 236.6 113.467C238.4 113.467 242.8 115.4 248.933 115.4C255.4 115.4 257.8 113.133 257.8 110.133C257.8 108 256.867 106.133 251.067 104.533L244.4 102.733C237 100.8 234.133 97.0667 234.133 92.5333C234.133 86.8667 238.6 81.8667 248.733 81.8667C253.267 81.8667 258.933 82.8667 262.4 84.2C263 87.4 262 89.1333 260.067 89.1333C258.333 89.1333 254.4 87.4667 248.867 87.4667C242.867 87.4667 240.667 89.5333 240.667 92.2C240.667 94.0667 241.533 95.8 246.867 97.3333L253.667 99.2C261.267 101.333 264.333 104.867 264.333 109.867C264.267 115.8 259.733 121.067 248.733 121.067ZM291.533 121.067C285.867 121.067 281.267 118.4 278.467 114.6V130.467C278.467 131.933 277.6 132.933 275.067 132.933C273.8 132.933 272.6 132.8 272 132.6V82.6C272.6 82.4667 273.8 82.2667 275.067 82.2667C277.6 82.2667 278.467 83.2 278.467 84.7333V88.3333C281.2 84.5333 285.867 81.8667 291.533 81.8667C301.067 81.8667 309.667 89.2 309.667 101.4C309.667 113.8 301 121.067 291.533 121.067ZM335.2 121.067C324.133 121.067 315.867 112.6 315.867 101.467C315.867 90.2667 324.133 81.9333 335.2 81.9333C346.333 81.9333 354.6 90.2667 354.6 101.467C354.6 112.6 346.333 121.067 335.2 121.067ZM382.067 88.5333C376.667 88.5333 372.067 91.0667 369.267 96.9333V118.2C369.267 119.8 368.4 120.667 365.8 120.667C364.733 120.667 363.467 120.533 362.8 120.333V82.6C363.4 82.4667 364.667 82.2667 365.8 82.2667C368.4 82.2667 369.267 83.2 369.267 84.7333V90C372.933 84.4 378.533 81.6 385.533 82.5333C385.6 83.0667 385.867 84.2667 385.867 85.4667C385.867 88 384.733 88.5333 382.067 88.5333ZM414.133 118.467C410.867 120.067 407.067 121.067 403.267 121.067C395.8 121.067 391.333 116.667 391.333 109.333V76.9333C391.333 75.2667 392.267 74.2 394.8 74.2C395.867 74.2 397.133 74.4667 397.8 74.6V82.8H412.467C412.533 83.3333 412.733 84.4667 412.733 85.4C412.733 87.6667 411.8 88.4667 410.4 88.4667H397.867V108.933C397.867 113.333 399.933 115.467 404.067 115.467C407.867 115.467 409.933 113.8 411.733 113.8C413.533 113.8 414.533 115.333 414.133 118.467ZM433.2 121.067C428.333 121.067 422.267 119.867 418.6 118.467C418.133 115.2 419.133 113.467 421.067 113.467C422.867 113.467 427.267 115.4 433.4 115.4C439.867 115.4 442.267 113.133 442.267 110.133C442.267 108 441.333 106.133 435.533 104.533L428.867 102.733C421.467 100.8 418.6 97.0667 418.6 92.5333C418.6 86.8667 423.067 81.8667 433.2 81.8667C437.733 81.8667 443.4 82.8667 446.867 84.2C447.467 87.4 446.467 89.1333 444.533 89.1333C442.8 89.1333 438.867 87.4667 433.333 87.4667C427.333 87.4667 425.133 89.5333 425.133 92.2C425.133 94.0667 426 95.8 431.333 97.3333L438.133 99.2C445.733 101.333 448.8 104.867 448.8 109.867C448.733 115.8 444.2 121.067 433.2 121.067Z" fill="white"/>
</g>
<defs>
<clipPath id="clip0_1217_2208">
<rect width="618.733" height="80" fill="white" transform="translate(91 61)"/>
</clipPath>
</defs>
</svg>
