<svg width="800" height="201" viewBox="0 0 800 201" fill="none" xmlns="http://www.w3.org/2000/svg">
<g clip-path="url(#clip0_1217_2208)">
<path d="M681.733 61H490.867C490.867 61 491.467 61.3333 491.933 61.8C492.4 62.2667 492.533 62.6 492.533 62.6H681.733C683.8 62.6 685.467 64.2667 685.467 66.3333V135.667C685.467 137.733 683.8 139.4 681.733 139.4H492.533C492.533 139.4 492.4 139.733 491.933 140.2C491.467 140.667 490.867 141 490.867 141H681.733C684.667 141 687.067 138.6 687.067 135.667V66.3333C687.067 63.4 684.667 61 681.733 61Z" fill="white"/>
<path d="M521.533 88.0666C521.533 90.1999 520.6 90.6666 518.4 90.6666C513.933 90.6666 510.133 92.7332 507.8 97.5999V115.267C507.8 116.6 507.067 117.267 504.933 117.267C504 117.267 503 117.133 502.467 117V85.6666C503 85.5332 504 85.3999 504.933 85.3999C507.067 85.3999 507.8 86.1999 507.8 87.3999V91.7332C510.867 87.1332 515.467 84.7999 521.267 85.5332C521.333 86.1332 521.533 87.1332 521.533 88.0666Z" fill="white"/>
<path d="M551 97V117.067C550.467 117.2 549.533 117.333 548.6 117.333C546.667 117.333 545.733 116.6 545.733 115.333V112.6C542.933 115.733 539.333 117.667 534.667 117.667C527.733 117.667 523.867 113.133 523.867 108.133C523.867 100.6 531.933 97.2667 545.667 98.2V97.0667C545.667 91.9333 544.133 89.8 538.2 89.8C535.733 89.8 532.4 90.5333 530.667 91C529.6 91.2667 528.867 91.5333 528.2 91.5333C526.733 91.5333 525.733 90.2 526.267 87.4667C529.467 86.2667 534.067 85.2 538.533 85.2C547.667 85.1333 551 89.2667 551 97ZM545.667 107.933V102C536.667 101.333 529.2 102.533 529.2 107.933C529.2 110.667 531.467 113.133 535.6 113.133C539.733 113.133 543.4 111.067 545.667 107.933Z" fill="white"/>
<path d="M557.4 101.333C557.4 92 564.267 85.1333 573.267 85.1333C577.467 85.1333 581.4 86.3333 584.134 87.6C584.6 90.5333 583.667 91.7333 582.4 91.7333C580.134 91.7333 578.2 89.8666 573.467 89.8666C567.6 89.8666 562.8 94.2 562.8 101.4C562.8 108.467 567.6 112.933 573.467 112.933C578.134 112.933 580.134 111 582.2 111C583.6 111 584.534 112.267 584.134 115.133C581.4 116.533 577.467 117.667 573.267 117.667C564.267 117.667 557.4 110.6 557.4 101.333Z" fill="white"/>
<path d="M589.533 78.6666C589.533 76.7333 591.067 75.2666 592.933 75.2666C594.867 75.2666 596.4 76.6666 596.4 78.6666C596.4 80.3999 594.933 82.0666 592.933 82.0666C591.067 81.9999 589.533 80.3999 589.533 78.6666ZM590.267 117.067V87.4666C590.267 86.1999 591 85.4666 593.133 85.4666C594.067 85.4666 595 85.5999 595.533 85.7333V115.267C595.533 116.6 594.867 117.267 592.733 117.267C591.8 117.333 590.8 117.2 590.267 117.067Z" fill="white"/>
<path d="M631.334 98.4V115.267C631.334 116.533 630.6 117.267 628.467 117.267C627.534 117.267 626.534 117.133 626 117V99.1333C626 92.8667 622.934 89.8667 618.334 89.8667C614.734 89.8667 610.867 92.3333 609.267 95.2667V115.267C609.267 116.533 608.534 117.267 606.4 117.267C605.467 117.267 604.467 117.133 603.934 117V85.6667C604.467 85.5333 605.467 85.4 606.4 85.4C608.534 85.4 609.267 86.2 609.267 87.4V90.0667C611.534 87.2667 615 85.0667 619.6 85.0667C626 85.1333 631.334 89.2 631.334 98.4Z" fill="white"/>
<path d="M668.333 85.7333V114.133C668.333 122.333 662.267 127.533 652.867 127.533C648.467 127.533 643.733 126.2 640.333 124.6C640 121.533 641 120.333 642.333 120.333C643.133 120.333 643.867 120.733 645.2 121.267C646.933 122 649.6 122.933 652.733 122.933C658.933 122.933 662.933 120 662.933 114V111.867C661.133 114.333 657.333 116.667 652.2 116.667C644.667 116.667 637.667 110.6 637.667 100.933C637.667 91.2 644.667 85.2 652.267 85.2C657.267 85.2 661.067 87.5333 663 90.1333V87.6C663 86.3333 663.733 85.5333 665.733 85.5333C666.733 85.4666 667.8 85.6 668.333 85.7333ZM663 95.6666C661.333 92.0666 657.667 89.6666 653.4 89.6666C647.6 89.6666 643.133 93.8 643.133 100.867C643.133 107.933 647.6 112.067 653.4 112.067C657.6 112.067 661.267 109.6 663 106.067V95.6666Z" fill="white"/>
<path d="M191.933 135.267C192.867 135.733 194.8 136.333 197.267 136.4C201.467 136.467 203.733 134.867 205.4 131.133L227.8 81.2668C226.867 80.8001 224.8 80.2001 223.133 80.2001C220.267 80.1334 216.4 80.7334 213.933 86.6001L206.667 103.667L192.467 80.5334C191.533 80.2668 189.267 79.8668 187.667 79.8668C182.6 79.8668 179.8 81.7334 176.933 84.8668L163.067 99.9334L174.2 117.4C176.267 120.6 178.933 122.2 183.333 122.2C186.2 122.2 188.6 121.533 189.733 121L176.333 100.933L185.8 90.8668L201.4 115.267L191.933 135.267ZM162.533 116.4C162.533 120.067 161.067 122.2 153.867 122.2C152.933 122.2 152.067 122.133 151.267 122V73.2001C151.267 69.4668 152.533 65.6001 159.8 65.6001C160.733 65.6001 161.667 65.6668 162.533 65.8668V116.4ZM147.667 109C147.667 115.867 143.2 120.867 134.067 121.867C127.467 122.6 117.867 121.733 113.333 121.2C113.2 120.467 113.067 119.533 113.067 118.8C113.067 112.8 116.267 111.467 119.333 111.467C122.467 111.467 127.467 112 131.2 112C135.267 112 136.533 110.6 136.533 109.333C136.533 107.6 134.933 106.933 131.733 106.267L123.067 104.6C115.867 103.267 112 98.2668 112 93.0001C112 86.6001 116.533 81.2001 125.467 80.2668C132.2 79.5334 140.467 80.3334 145 80.9334C145.133 81.6668 145.267 82.4668 145.267 83.2668C145.267 89.2668 142.133 90.5334 139.067 90.5334C136.733 90.5334 133.133 90.1334 128.933 90.1334C124.733 90.1334 123 91.2668 123 92.7334C123 94.2668 124.667 94.8668 127.333 95.3334L135.6 96.8668C144 98.2668 147.667 103.067 147.667 109Z" fill="white"/>
<path d="M311.267 87.5333C306.267 87.5333 301.6 90.4667 299.467 94.6667V108.267C301.6 112.533 306.2 115.4 311.267 115.4C318.667 115.4 324.133 109.733 324.133 101.4C324.133 93.2 318.667 87.5333 311.267 87.5333ZM479.933 61H245.133C242.2 61 239.8 63.4 239.8 66.3333V135.667C239.8 138.6 242.2 141 245.133 141H480C482.933 141 485.333 138.6 485.333 135.667V66.3333C485.267 63.4 482.867 61 479.933 61ZM269.733 121.067C264.867 121.067 258.8 119.867 255.133 118.467C254.667 115.2 255.667 113.467 257.6 113.467C259.4 113.467 263.8 115.4 269.933 115.4C276.4 115.4 278.8 113.133 278.8 110.133C278.8 108 277.867 106.133 272.067 104.533L265.4 102.733C258 100.8 255.133 97.0667 255.133 92.5333C255.133 86.8667 259.6 81.8667 269.733 81.8667C274.267 81.8667 279.933 82.8667 283.4 84.2C284 87.4 283 89.1333 281.067 89.1333C279.333 89.1333 275.4 87.4667 269.867 87.4667C263.867 87.4667 261.667 89.5333 261.667 92.2C261.667 94.0667 262.533 95.8 267.867 97.3333L274.667 99.2C282.267 101.333 285.333 104.867 285.333 109.867C285.267 115.8 280.733 121.067 269.733 121.067ZM312.533 121.067C306.867 121.067 302.267 118.4 299.467 114.6V130.467C299.467 131.933 298.6 132.933 296.067 132.933C294.8 132.933 293.6 132.8 293 132.6V82.6C293.6 82.4667 294.8 82.2667 296.067 82.2667C298.6 82.2667 299.467 83.2 299.467 84.7333V88.3333C302.2 84.5333 306.867 81.8667 312.533 81.8667C322.067 81.8667 330.667 89.2 330.667 101.4C330.667 113.8 322 121.067 312.533 121.067ZM356.2 121.067C345.133 121.067 336.867 112.6 336.867 101.467C336.867 90.2667 345.133 81.9333 356.2 81.9333C367.333 81.9333 375.6 90.2667 375.6 101.467C375.6 112.6 367.333 121.067 356.2 121.067ZM403.067 88.5333C397.667 88.5333 393.067 91.0667 390.267 96.9333V118.2C390.267 119.8 389.4 120.667 386.8 120.667C385.733 120.667 384.467 120.533 383.8 120.333V82.6C384.4 82.4667 385.667 82.2667 386.8 82.2667C389.4 82.2667 390.267 83.2 390.267 84.7333V90C393.933 84.4 399.533 81.6 406.533 82.5333C406.6 83.0667 406.867 84.2667 406.867 85.4667C406.867 88 405.733 88.5333 403.067 88.5333ZM435.133 118.467C431.867 120.067 428.067 121.067 424.267 121.067C416.8 121.067 412.333 116.667 412.333 109.333V76.9333C412.333 75.2667 413.267 74.2 415.8 74.2C416.867 74.2 418.133 74.4667 418.8 74.6V82.8H433.467C433.533 83.3333 433.733 84.4667 433.733 85.4C433.733 87.6667 432.8 88.4667 431.4 88.4667H418.867V108.933C418.867 113.333 420.933 115.467 425.067 115.467C428.867 115.467 430.933 113.8 432.733 113.8C434.533 113.8 435.533 115.333 435.133 118.467ZM454.2 121.067C449.333 121.067 443.267 119.867 439.6 118.467C439.133 115.2 440.133 113.467 442.067 113.467C443.867 113.467 448.267 115.4 454.4 115.4C460.867 115.4 463.267 113.133 463.267 110.133C463.267 108 462.333 106.133 456.533 104.533L449.867 102.733C442.467 100.8 439.6 97.0667 439.6 92.5333C439.6 86.8667 444.067 81.8667 454.2 81.8667C458.733 81.8667 464.4 82.8667 467.867 84.2C468.467 87.4 467.467 89.1333 465.533 89.1333C463.8 89.1333 459.867 87.4667 454.333 87.4667C448.333 87.4667 446.133 89.5333 446.133 92.2C446.133 94.0667 447 95.8 452.333 97.3333L459.133 99.2C466.733 101.333 469.8 104.867 469.8 109.867C469.733 115.8 465.2 121.067 454.2 121.067ZM356.2 87.5333C349.2 87.5333 343.4 92.8 343.4 101.467C343.4 110 349.2 115.467 356.2 115.467C363.267 115.467 369.067 110.067 369.067 101.467C369.067 92.8 363.267 87.5333 356.2 87.5333Z" fill="white"/>
</g>
<defs>
<clipPath id="clip0_1217_2208">
<rect width="575.067" height="80" fill="white" transform="translate(112 61)"/>
</clipPath>
</defs>
</svg>
