<svg width="800" height="201" viewBox="0 0 800 201" fill="none" xmlns="http://www.w3.org/2000/svg">
<g clip-path="url(#clip0_1217_2208)">
<path d="M652.133 61H520.867C520.867 61 521.467 61.3333 521.933 61.8C522.4 62.2667 522.533 62.6 522.533 62.6H652.133C654.2 62.6 655.867 64.2667 655.867 66.3333V135.667C655.867 137.733 654.2 139.4 652.133 139.4H522.533C522.533 139.4 522.4 139.733 521.933 140.2C521.467 140.667 520.867 141 520.867 141H652.133C655.067 141 657.467 138.6 657.467 135.667V66.3333C657.467 63.4 655.067 61 652.133 61Z" fill="white"/>
<path d="M561.333 85.7335V114.134C561.333 122.334 555.267 127.534 545.867 127.534C541.467 127.534 536.733 126.2 533.333 124.6C533 121.534 534 120.334 535.333 120.334C536.133 120.334 536.867 120.734 538.2 121.267C539.933 122 542.6 122.934 545.733 122.934C551.933 122.934 555.933 120 555.933 114V111.867C554.133 114.334 550.333 116.667 545.2 116.667C537.667 116.667 530.667 110.6 530.667 100.934C530.667 91.2002 537.667 85.2002 545.267 85.2002C550.267 85.2002 554.067 87.5335 556 90.1335V87.6002C556 86.3335 556.733 85.5335 558.733 85.5335C559.8 85.4669 560.8 85.6002 561.333 85.7335ZM556 95.6669C554.333 92.0669 550.667 89.6669 546.4 89.6669C540.6 89.6669 536.133 93.8002 536.133 100.867C536.133 107.934 540.6 112.067 546.4 112.067C550.6 112.067 554.267 109.6 556 106.067V95.6669Z" fill="white"/>
<path d="M567.933 101.334C567.933 92.0002 574.8 85.1335 583.933 85.1335C593.2 85.1335 600 92.0669 600 101.334C600 110.6 593.133 117.6 583.933 117.6C574.8 117.667 567.933 110.6 567.933 101.334ZM594.667 101.334C594.667 94.2002 589.867 89.8002 584 89.8002C578.2 89.8002 573.4 94.1335 573.4 101.334C573.4 108.4 578.2 112.934 584 112.934C589.8 112.934 594.667 108.467 594.667 101.334Z" fill="white"/>
<path d="M606.8 117.067V76.5334C606.8 75.2668 607.533 74.5334 609.667 74.5334C610.6 74.5334 611.6 74.6668 612.133 74.8001V115.267C612.133 116.6 611.4 117.267 609.267 117.267C608.333 117.333 607.333 117.2 606.8 117.067Z" fill="white"/>
<path d="M627.933 84.7334V86.6001H638.533C638.6 87.0668 638.733 88.0001 638.733 88.7334C638.733 90.6001 638 91.2668 636.8 91.2668H627.933V115.067C627.933 116.4 627.2 117.067 625.067 117.067C624.133 117.067 623.133 116.933 622.6 116.8V91.3334H617.933C617.867 90.9334 617.733 89.9334 617.733 89.2001C617.733 87.3334 618.533 86.6668 619.667 86.6668H622.6V85.2001C622.6 78.0001 627 74.6001 632.8 74.6001C635.533 74.6001 638.667 75.2668 640.4 76.0001C640.533 76.5334 640.533 77.0668 640.533 77.4001C640.533 79.4001 639.667 80.2001 638.667 80.2001C637.8 80.2001 636 79.3334 633.067 79.3334C629.867 79.2001 627.933 80.8001 627.933 84.7334Z" fill="white"/>
<path d="M221.933 135.267C222.867 135.733 224.8 136.333 227.267 136.4C231.467 136.467 233.733 134.867 235.4 131.133L257.8 81.2668C256.867 80.8001 254.8 80.2001 253.133 80.2001C250.267 80.1334 246.4 80.7334 243.933 86.6001L236.667 103.667L222.467 80.5334C221.533 80.2668 219.267 79.8668 217.667 79.8668C212.6 79.8668 209.8 81.7334 206.933 84.8668L193.067 99.9334L204.2 117.4C206.267 120.6 208.933 122.2 213.333 122.2C216.2 122.2 218.6 121.533 219.733 121L206.333 100.933L215.8 90.8668L231.4 115.267L221.933 135.267ZM192.533 116.4C192.533 120.067 191.067 122.2 183.867 122.2C182.933 122.2 182.067 122.133 181.267 122V73.2001C181.267 69.4668 182.533 65.6001 189.8 65.6001C190.733 65.6001 191.667 65.6668 192.533 65.8668V116.4ZM177.667 109C177.667 115.867 173.2 120.867 164.067 121.867C157.467 122.6 147.867 121.733 143.333 121.2C143.2 120.467 143.067 119.533 143.067 118.8C143.067 112.8 146.267 111.467 149.333 111.467C152.467 111.467 157.467 112 161.2 112C165.267 112 166.533 110.6 166.533 109.333C166.533 107.6 164.933 106.933 161.733 106.267L153.067 104.6C145.867 103.267 142 98.2668 142 93.0001C142 86.6001 146.533 81.2001 155.467 80.2668C162.2 79.5334 170.467 80.3334 175 80.9334C175.133 81.6668 175.267 82.4668 175.267 83.2668C175.267 89.2668 172.133 90.5334 169.067 90.5334C166.733 90.5334 163.133 90.1334 158.933 90.1334C154.733 90.1334 153 91.2668 153 92.7334C153 94.2668 154.667 94.8668 157.333 95.3334L165.6 96.8668C174 98.2668 177.667 103.067 177.667 109Z" fill="white"/>
<path d="M386.2 87.5333C379.2 87.5333 373.4 92.8 373.4 101.467C373.4 110 379.2 115.467 386.2 115.467C393.267 115.467 399.067 110.067 399.067 101.467C399.067 92.8 393.267 87.5333 386.2 87.5333ZM341.267 87.5333C336.267 87.5333 331.6 90.4667 329.467 94.6667V108.267C331.6 112.533 336.2 115.4 341.267 115.4C348.667 115.4 354.133 109.733 354.133 101.4C354.133 93.2 348.667 87.5333 341.267 87.5333ZM509.933 61H275.133C272.2 61 269.8 63.4 269.8 66.3333V135.667C269.8 138.6 272.2 141 275.133 141H510C512.933 141 515.333 138.6 515.333 135.667V66.3333C515.267 63.4 512.867 61 509.933 61ZM299.733 121.067C294.867 121.067 288.8 119.867 285.133 118.467C284.667 115.2 285.667 113.467 287.6 113.467C289.4 113.467 293.8 115.4 299.933 115.4C306.4 115.4 308.8 113.133 308.8 110.133C308.8 108 307.867 106.133 302.067 104.533L295.4 102.733C288 100.8 285.133 97.0667 285.133 92.5333C285.133 86.8667 289.6 81.8667 299.733 81.8667C304.267 81.8667 309.933 82.8667 313.4 84.2C314 87.4 313 89.1333 311.067 89.1333C309.333 89.1333 305.4 87.4667 299.867 87.4667C293.867 87.4667 291.667 89.5333 291.667 92.2C291.667 94.0667 292.533 95.8 297.867 97.3333L304.667 99.2C312.267 101.333 315.333 104.867 315.333 109.867C315.267 115.8 310.733 121.067 299.733 121.067ZM342.533 121.067C336.867 121.067 332.267 118.4 329.467 114.6V130.467C329.467 131.933 328.6 132.933 326.067 132.933C324.8 132.933 323.6 132.8 323 132.6V82.6C323.6 82.4667 324.8 82.2667 326.067 82.2667C328.6 82.2667 329.467 83.2 329.467 84.7333V88.3333C332.2 84.5333 336.867 81.8667 342.533 81.8667C352.067 81.8667 360.667 89.2 360.667 101.4C360.667 113.8 352 121.067 342.533 121.067ZM386.2 121.067C375.133 121.067 366.867 112.6 366.867 101.467C366.867 90.2667 375.133 81.9333 386.2 81.9333C397.333 81.9333 405.6 90.2667 405.6 101.467C405.6 112.6 397.333 121.067 386.2 121.067ZM433.067 88.5333C427.667 88.5333 423.067 91.0667 420.267 96.9333V118.2C420.267 119.8 419.4 120.667 416.8 120.667C415.733 120.667 414.467 120.533 413.8 120.333V82.6C414.4 82.4667 415.667 82.2667 416.8 82.2667C419.4 82.2667 420.267 83.2 420.267 84.7333V90C423.933 84.4 429.533 81.6 436.533 82.5333C436.6 83.0667 436.867 84.2667 436.867 85.4667C436.867 88 435.733 88.5333 433.067 88.5333ZM465.133 118.467C461.867 120.067 458.067 121.067 454.267 121.067C446.8 121.067 442.333 116.667 442.333 109.333V76.9333C442.333 75.2667 443.267 74.2 445.8 74.2C446.867 74.2 448.133 74.4667 448.8 74.6V82.8H463.467C463.533 83.3333 463.733 84.4667 463.733 85.4C463.733 87.6667 462.8 88.4667 461.4 88.4667H448.867V108.933C448.867 113.333 450.933 115.467 455.067 115.467C458.867 115.467 460.933 113.8 462.733 113.8C464.533 113.8 465.533 115.333 465.133 118.467ZM484.2 121.067C479.333 121.067 473.267 119.867 469.6 118.467C469.133 115.2 470.133 113.467 472.067 113.467C473.867 113.467 478.267 115.4 484.4 115.4C490.867 115.4 493.267 113.133 493.267 110.133C493.267 108 492.333 106.133 486.533 104.533L479.867 102.733C472.467 100.8 469.6 97.0667 469.6 92.5333C469.6 86.8667 474.067 81.8667 484.2 81.8667C488.733 81.8667 494.4 82.8667 497.867 84.2C498.467 87.4 497.467 89.1333 495.533 89.1333C493.8 89.1333 489.867 87.4667 484.333 87.4667C478.333 87.4667 476.133 89.5333 476.133 92.2C476.133 94.0667 477 95.8 482.333 97.3333L489.133 99.2C496.733 101.333 499.8 104.867 499.8 109.867C499.733 115.8 495.2 121.067 484.2 121.067Z" fill="white"/>
</g>
<defs>
<clipPath id="clip0_1217_2208">
<rect width="515.467" height="80" fill="white" transform="translate(142 61)"/>
</clipPath>
</defs>
</svg>
