<svg width="800" height="201" viewBox="0 0 800 201" fill="none" xmlns="http://www.w3.org/2000/svg">
<g clip-path="url(#clip0_1217_2208)">
<path d="M747.133 61H425.867C425.867 61 426.467 61.3333 426.933 61.8C427.4 62.2667 427.533 62.6 427.533 62.6H747.067C749.133 62.6 750.8 64.2667 750.8 66.3333V135.667C750.8 137.733 749.133 139.4 747.067 139.4H427.533C427.533 139.4 427.4 139.733 426.933 140.2C426.467 140.667 425.867 141 425.867 141H747.067C750 141 752.4 138.6 752.4 135.667V66.3333C752.4 63.4 750.067 61 747.133 61Z" fill="white"/>
<path d="M480.933 96.4666V115.267C480.933 116.6 480.2 117.267 478.067 117.267C477.133 117.267 476.133 117.133 475.6 117V97.1333C475.6 92.6 473.467 89.9333 469.333 89.9333C465.867 89.9333 463 92.3333 461.867 94.8V115.333C461.867 116.667 461.133 117.333 459 117.333C458.067 117.333 457.067 117.2 456.533 117.067V97.1333C456.533 92.6 454.4 89.9333 450.267 89.9333C446.8 89.9333 443.933 92.3333 442.8 94.8V115.333C442.8 116.667 442.067 117.333 439.933 117.333C439 117.333 438 117.2 437.467 117.067V85.7333C438 85.6 439 85.4666 440 85.4666C442 85.4666 442.733 86.2666 442.733 87.6V89.7333C444.733 87.0666 447.867 85.1333 451.667 85.1333C455.8 85.1333 459.067 87.2 460.733 90.8C462.867 87.5333 466.133 85.1333 470.733 85.1333C477.4 85.1333 480.933 90.1333 480.933 96.4666Z" fill="white"/>
<path d="M514.133 97V117.067C513.6 117.2 512.667 117.333 511.733 117.333C509.8 117.333 508.867 116.6 508.867 115.333V112.6C506.067 115.8 502.4 117.667 497.8 117.667C490.867 117.667 487 113.133 487 108.133C487 100.6 495.067 97.2667 508.8 98.2V97.0667C508.8 91.9333 507.267 89.8 501.333 89.8C498.867 89.8 495.533 90.5333 493.8 91C492.733 91.2667 492 91.5333 491.333 91.5333C489.867 91.5333 488.867 90.2 489.4 87.4667C492.6 86.2667 497.2 85.2 501.667 85.2C510.733 85.1333 514.133 89.2667 514.133 97ZM508.8 107.933V102C499.8 101.333 492.333 102.533 492.333 107.933C492.333 110.667 494.6 113.133 498.733 113.133C502.867 113.133 506.533 111.067 508.8 107.933Z" fill="white"/>
<path d="M521.533 78.6666C521.533 76.7333 523.067 75.2666 524.933 75.2666C526.867 75.2666 528.4 76.6666 528.4 78.6666C528.4 80.3999 526.933 82.0666 524.933 82.0666C523.133 82 521.533 80.3999 521.533 78.6666ZM522.267 117.067V87.4666C522.267 86.2 523 85.4666 525.133 85.4666C526.067 85.4666 527 85.6 527.533 85.7333V115.267C527.533 116.6 526.867 117.267 524.733 117.267C523.8 117.333 522.8 117.2 522.267 117.067Z" fill="white"/>
<path d="M563.334 98.4V115.267C563.334 116.533 562.6 117.267 560.467 117.267C559.534 117.267 558.534 117.133 558 117V99.1333C558 92.8667 554.934 89.8667 550.334 89.8667C546.734 89.8667 542.867 92.3333 541.267 95.2667V115.267C541.267 116.533 540.534 117.267 538.4 117.267C537.467 117.267 536.467 117.133 535.934 117V85.6667C536.467 85.5333 537.467 85.4 538.4 85.4C540.534 85.4 541.267 86.2 541.267 87.4V90.0667C543.534 87.2667 547 85.0667 551.6 85.0667C558 85.1333 563.334 89.2 563.334 98.4Z" fill="white"/>
<path d="M609.267 103.333H585C585.733 109.4 589.867 112.8 596.067 112.8C598.733 112.8 600.8 112.267 602.8 111.6C604.2 111.133 604.733 110.933 605.267 110.933C606.733 110.933 607.733 112.2 607.467 115.067C604.667 116.333 600.4 117.667 595.867 117.667C586.133 117.667 579.533 111.067 579.533 101.333C579.533 91.9333 586.467 85.2 595 85.2C604.667 85.2 609.4 92.6666 609.4 100.267C609.467 101.067 609.4 102.2 609.267 103.333ZM585 99.1333H604.2C604 93.8 600.533 89.6 595 89.6C590.267 89.6666 585.867 92.9333 585 99.1333Z" fill="white"/>
<path d="M624.467 116.867L611.134 86.3332C611.934 85.8666 613.4 85.4666 614.667 85.4666C616.267 85.4666 617.067 85.9332 617.667 87.3332L623.067 100.6L627.6 111.667H627.667L632.2 100.6L637.6 87.3332C638.2 85.9332 638.933 85.4666 640.533 85.4666C641.733 85.4666 643.133 85.8666 644 86.3332L631.4 115.133C630.6 116.867 629.933 117.333 627.733 117.333C626.8 117.333 625.6 117.133 624.467 116.867Z" fill="white"/>
<path d="M675.267 103.333H651.067C651.8 109.4 655.933 112.8 662.133 112.8C664.8 112.8 666.867 112.267 668.867 111.6C670.267 111.133 670.8 110.933 671.333 110.933C672.8 110.933 673.8 112.2 673.533 115.067C670.733 116.333 666.467 117.667 661.933 117.667C652.2 117.667 645.6 111.067 645.6 101.333C645.6 91.9333 652.533 85.2 661.067 85.2C670.733 85.2 675.467 92.6666 675.467 100.267C675.467 101.067 675.4 102.2 675.267 103.333ZM651.067 99.1333H670.267C670.067 93.8 666.6 89.6 661.067 89.6C656.267 89.6666 651.867 92.9333 651.067 99.1333Z" fill="white"/>
<path d="M709.533 98.4V115.267C709.533 116.533 708.8 117.267 706.667 117.267C705.733 117.267 704.733 117.133 704.2 117V99.1333C704.2 92.8667 701.133 89.8667 696.533 89.8667C692.933 89.8667 689.067 92.3333 687.467 95.2667V115.267C687.467 116.533 686.733 117.267 684.6 117.267C683.667 117.267 682.667 117.133 682.133 117V85.6667C682.667 85.5333 683.667 85.4 684.6 85.4C686.733 85.4 687.467 86.2 687.467 87.4V90.0667C689.733 87.2667 693.2 85.0667 697.8 85.0667C704.2 85.1333 709.533 89.2 709.533 98.4Z" fill="white"/>
<path d="M736.333 115.467C733.6 116.8 730.467 117.6 727.333 117.6C721.133 117.6 717.467 113.933 717.467 107.867V81.0667C717.467 79.6667 718.267 78.8 720.333 78.8C721.267 78.8 722.267 79 722.8 79.1334V85.9334H735C735.067 86.4 735.2 87.3334 735.2 88.0667C735.2 89.9334 734.4 90.6 733.267 90.6H722.867V107.6C722.867 111.267 724.533 113 728 113C731.133 113 732.867 111.6 734.4 111.6C735.867 111.6 736.667 112.867 736.333 115.467Z" fill="white"/>
<path d="M126.933 135.266C127.867 135.733 129.8 136.333 132.267 136.4C136.467 136.466 138.733 134.866 140.4 131.133L162.8 81.2667C161.867 80.8 159.8 80.2 158.133 80.2C155.267 80.1334 151.4 80.7334 148.933 86.6L141.667 103.667L127.467 80.5334C126.533 80.2667 124.267 79.8667 122.667 79.8667C117.6 79.8667 114.8 81.7334 111.933 84.8667L98.0667 99.9333L109.2 117.4C111.267 120.6 113.933 122.2 118.333 122.2C121.2 122.2 123.6 121.533 124.733 121L111.333 100.933L120.8 90.8667L136.4 115.267L126.933 135.266ZM97.5333 116.4C97.5333 120.067 96.0667 122.2 88.8667 122.2C87.9333 122.2 87.0667 122.133 86.2667 122V73.2001C86.2667 69.4667 87.5333 65.6001 94.8 65.6001C95.7333 65.6001 96.6667 65.6668 97.5333 65.8668V116.4ZM82.6667 109C82.6667 115.867 78.2 120.867 69.0667 121.867C62.4667 122.6 52.8667 121.733 48.3333 121.2C48.2 120.467 48.0667 119.533 48.0667 118.8C48.0667 112.8 51.2667 111.467 54.3333 111.467C57.4667 111.467 62.4667 112 66.2 112C70.2667 112 71.5333 110.6 71.5333 109.333C71.5333 107.6 69.9333 106.933 66.7333 106.267L58.0667 104.6C50.8667 103.267 47 98.2666 47 93C47 86.6 51.5333 81.2 60.4667 80.2667C67.2 79.5334 75.4667 80.3334 80 80.9334C80.1333 81.6667 80.2667 82.4667 80.2667 83.2667C80.2667 89.2667 77.1333 90.5333 74.0667 90.5333C71.7333 90.5333 68.1333 90.1333 63.9333 90.1333C59.7333 90.1333 58 91.2667 58 92.7333C58 94.2666 59.6667 94.8666 62.3333 95.3333L70.6 96.8666C79 98.2666 82.6667 103.067 82.6667 109Z" fill="white"/>
<path d="M414.931 61H180.133C177.2 61 174.8 63.4 174.8 66.3333V135.667C174.8 138.6 177.2 141 180.133 141H414.997C417.931 141 420.331 138.6 420.331 135.667V66.3333C420.264 63.4 417.864 61 414.931 61ZM204.733 121.067C199.866 121.067 193.8 119.867 190.133 118.467C189.667 115.2 190.667 113.467 192.6 113.467C194.4 113.467 198.8 115.4 204.933 115.4C211.4 115.4 213.8 113.133 213.8 110.133C213.8 108 212.866 106.133 207.066 104.533L200.4 102.733C193 100.8 190.133 97.0667 190.133 92.5333C190.133 86.8667 194.6 81.8667 204.733 81.8667C209.266 81.8667 214.933 82.8667 218.4 84.2C219 87.4 218 89.1333 216.066 89.1333C214.333 89.1333 210.4 87.4667 204.866 87.4667C198.866 87.4667 196.666 89.5333 196.666 92.2C196.666 94.0667 197.533 95.8 202.866 97.3333L209.666 99.2C217.266 101.333 220.333 104.867 220.333 109.867C220.266 115.8 215.733 121.067 204.733 121.067ZM247.533 121.067C241.866 121.067 237.266 118.4 234.466 114.6V130.467C234.466 131.933 233.599 132.933 231.066 132.933C229.799 132.933 228.599 132.8 227.999 132.6V82.6C228.599 82.4667 229.799 82.2667 231.066 82.2667C233.599 82.2667 234.466 83.2 234.466 84.7333V88.3333C237.199 84.5333 241.866 81.8667 247.533 81.8667C257.066 81.8667 265.666 89.2 265.666 101.4C265.666 113.8 256.999 121.067 247.533 121.067ZM291.199 121.067C280.132 121.067 271.866 112.6 271.866 101.467C271.866 90.2667 280.132 81.9333 291.199 81.9333C302.332 81.9333 310.598 90.2667 310.598 101.467C310.598 112.6 302.332 121.067 291.199 121.067ZM338.065 88.5333C332.665 88.5333 328.065 91.0667 325.265 96.9333V118.2C325.265 119.8 324.398 120.667 321.798 120.667C320.732 120.667 319.465 120.533 318.798 120.333V82.6C319.398 82.4667 320.665 82.2667 321.798 82.2667C324.398 82.2667 325.265 83.2 325.265 84.7333V90C328.932 84.4 334.532 81.6 341.531 82.5333C341.598 83.0667 341.865 84.2667 341.865 85.4667C341.865 88 340.731 88.5333 338.065 88.5333ZM370.131 118.467C366.864 120.067 363.065 121.067 359.265 121.067C351.798 121.067 347.331 116.667 347.331 109.333V76.9333C347.331 75.2667 348.265 74.2 350.798 74.2C351.865 74.2 353.131 74.4667 353.798 74.6V82.8H368.464C368.531 83.3333 368.731 84.4667 368.731 85.4C368.731 87.6667 367.798 88.4667 366.398 88.4667H353.865V108.933C353.865 113.333 355.931 115.467 360.065 115.467C363.865 115.467 365.931 113.8 367.731 113.8C369.531 113.8 370.531 115.333 370.131 118.467ZM389.198 121.067C384.331 121.067 378.264 119.867 374.598 118.467C374.131 115.2 375.131 113.467 377.064 113.467C378.864 113.467 383.264 115.4 389.398 115.4C395.864 115.4 398.264 113.133 398.264 110.133C398.264 108 397.331 106.133 391.531 104.533L384.864 102.733C377.464 100.8 374.598 97.0667 374.598 92.5333C374.598 86.8667 379.064 81.8667 389.198 81.8667C393.731 81.8667 399.397 82.8667 402.864 84.2C403.464 87.4 402.464 89.1333 400.531 89.1333C398.797 89.1333 394.864 87.4667 389.331 87.4667C383.331 87.4667 381.131 89.5333 381.131 92.2C381.131 94.0667 381.998 95.8 387.331 97.3333L394.131 99.2C401.731 101.333 404.797 104.867 404.797 109.867C404.731 115.8 400.197 121.067 389.198 121.067ZM246.266 87.5333C241.266 87.5333 236.599 90.4667 234.466 94.6667V108.267C236.599 112.533 241.199 115.4 246.266 115.4C253.666 115.4 259.132 109.733 259.132 101.4C259.132 93.2 253.666 87.5333 246.266 87.5333ZM291.199 87.5333C284.199 87.5333 278.399 92.8 278.399 101.467C278.399 110 284.199 115.467 291.199 115.467C298.265 115.467 304.065 110.067 304.065 101.467C304.065 92.8 298.265 87.5333 291.199 87.5333Z" fill="white"/>
</g>
<defs>
<clipPath id="clip0_1217_2208">
<rect width="705.4" height="80" fill="white" transform="translate(47 61)"/>
</clipPath>
</defs>
</svg>
