<svg width="800" height="201" viewBox="0 0 800 201" fill="none" xmlns="http://www.w3.org/2000/svg">
<g clip-path="url(#clip0_1217_2208)">
<path d="M644.6 61H529.867C529.867 61 530.467 61.3333 530.933 61.8C531.4 62.2667 531.533 62.6 531.533 62.6H644.6C646.667 62.6 648.333 64.2667 648.333 66.3333V135.667C648.333 137.733 646.667 139.4 644.6 139.4H531.533C531.533 139.4 531.4 139.733 530.933 140.2C530.467 140.667 529.867 141 529.867 141H644.6C647.533 141 649.933 138.6 649.933 135.667V66.3333C649.933 63.4 647.533 61 644.6 61Z" fill="white"/>
<path d="M633.667 81.7333C632.933 82.0666 632.133 82.4666 631.533 82.9999C631.267 82.8666 631.333 83.1999 631.2 83.2666C630.467 83.7999 629.867 84.5333 629.133 85.0666C629.267 85.1333 629.2 85.2666 629.133 85.2666L628.8 85.5333L628.867 85.5999C627.933 86.4666 626.933 87.5999 626 88.5999C625.933 88.8666 625.867 89.1999 625.6 89.3333L625.667 89.3999C625.333 89.6666 625.2 89.7999 625 90.1333C625.067 90.0666 625 89.9999 624.933 89.9999L624.8 90.1333L624.867 90.1999H624.8C624.733 90.1999 624.733 90.2666 624.667 90.3333C624.933 90.6666 624.4 90.6666 624.333 90.8666C624.267 90.7999 624.267 90.7333 624.2 90.7999L624.133 90.8666C624.2 90.9333 624.2 90.9333 624.2 90.9999L624.133 90.9333C624.067 90.9999 623.933 91.0666 623.933 91.1333L624 91.1999L623.867 91.3333C623.867 91.5333 623.867 91.2666 623.8 91.2666C623.467 91.3333 623.867 91.5333 623.6 91.6666L623.467 91.5333C623.4 91.5999 623.333 91.5999 623.4 91.6666L623.533 91.7999C623.467 91.7999 623.333 91.7999 623.333 91.7333C623.267 91.7999 623.2 91.7999 623.267 91.8666C623.333 91.9333 623.333 91.9999 623.4 91.9333C622.733 92.1999 622.667 93.0666 622 93.4666C621.4 94.1333 621.267 94.7999 620.667 95.4666L620.733 95.5333C621 95.1999 621.267 94.9999 621.467 94.6666C621.133 95.4666 620.333 95.9999 620.133 96.9333L620.2 96.9999C620.133 97.0666 620.133 97.0666 620.133 97.1333L620.2 97.1999C620.4 96.9333 620.6 96.7999 620.733 96.5999C620.467 97.6666 619.533 98.1999 619.133 99.1999C619.133 99.3333 619.2 99.4666 619.333 99.5999C619.333 99.5333 619.4 99.6666 619.4 99.6666L619.933 100.333C619.8 100.267 619.8 100.333 619.733 100.333C619.867 100.6 620 100.667 620.133 100.933C620.2 101 620.2 101.133 620.267 101.2H620.333C620.333 101.333 620.333 101.4 620.4 101.533C620.4 101.6 620.467 101.6 620.467 101.667C620.533 101.8 620.667 102 620.733 102.133L620.933 102.867C621.067 103 621.133 103.2 621.2 103.333C621.467 103.867 621.933 104.2 622.267 104.667C622.733 105.267 623.067 106.267 623.333 106.8C623.933 108 624.8 108.667 625.333 109.933C625.6 110.6 626.067 111.133 626.467 111.733C626.6 111.933 626.8 112.133 626.933 112.333C627 112.4 627.133 112.467 627.2 112.6C627.467 112.933 627.933 113.4 627.733 113.6C627.667 113.733 628.067 114.2 628.333 114.6C628.4 114.667 628.467 114.733 628.467 114.8C628.667 115.067 628.667 115.333 628.667 115.333C628.667 115.4 628.733 115.4 628.733 115.467C628.933 115.6 629.333 116.4 629.467 116.8C629.467 116.867 629.533 116.933 629.533 116.933C629.533 117 629.6 117 629.6 117C629.733 117.4 629.733 117.867 629.733 118.267C629.733 118.533 629.667 118.867 629.6 119.2H629.533C629.467 119.467 629.6 119.667 629.4 119.8L629.267 119.733C629.4 120 629.067 119.867 628.933 119.933C628.6 119.733 628.6 120.267 628.133 120.133C627.733 120.467 627.267 119.733 626.8 120C626.733 119.4 626 119.267 625.933 118.733C625.533 118.267 624.933 117.867 624.667 117.333C624.267 116.733 624.2 116.067 623.8 115.4C623.6 115.067 623.733 115.667 623.533 115.333L623.6 115.8L623.4 115.467C623.2 115.2 622.8 115.067 622.667 114.8C622.667 114.733 622.6 114.733 622.6 114.667C622.133 114 621.667 113.467 621.267 112.8L621.333 112.733C621.533 112.8 621.667 113.067 621.8 113.2L621.867 113.133C621.467 112.6 621.067 112.067 620.667 111.533C619.667 110.6 619.2 109.467 618.6 108.267C618.067 107.267 617.2 106.733 616.533 105.8C616.267 105.467 616.067 105.133 615.867 104.867C615.867 105 616.067 105.2 616 105.333C616.133 105.6 616.533 105.933 616.6 106.267C616.467 105.8 615.933 105.4 615.6 105.267L615.533 105.333L615.267 105C615.067 105.2 615 105.6 614.733 105.6C614.867 105.933 614.467 105.933 614.333 106.2C614.4 106.467 614.2 106.733 614.067 107C613.8 107.133 613.733 107.4 613.667 107.6L613.6 107.533C613.533 107.6 613.467 107.6 613.533 107.667C613.533 108 613.2 108.333 613 108.667C612 110.067 611.267 111.667 610.333 113.133C609.667 114.133 608.933 115.133 607.867 115.867C607.533 116.467 606.867 117.133 606.133 117.133L606.067 117.067C606 117.267 605.867 117.067 605.8 117.067C605.733 116.867 605.2 117.067 605 116.867C604.6 116.867 604.467 116.333 604.067 116.267C604.333 115.933 603.933 115.6 604.2 115.333C604.333 115.2 604.533 114.867 604.733 114.733C604.733 114.533 604.8 114.2 604.933 114L605 114.067C605.067 114 605.133 114 605.067 113.933C605 113.867 605 113.8 604.933 113.867L605.067 113.733L605 113.667C605.067 113.333 605.267 113.067 605.4 112.8C605.867 112.133 606.533 111.6 606.8 110.8C608.867 107.8 610.533 104.6 612.8 101.733C613 101.467 613.133 101.133 613.067 100.867C613 100.933 613 100.933 612.933 100.933C612.867 100.867 612.867 100.867 612.867 100.8L612.933 100.867C613.067 100.6 612.8 100.267 612.667 99.9333C612.6 99.8666 612.533 99.9333 612.533 99.9999L612.6 100.467C612.267 99.7999 611.6 99.1999 611.4 98.5999C610.867 98.4666 610.933 97.7999 610.467 97.4666C609.933 96.3333 609.2 95.4666 608.6 94.3333C608.4 94.4666 608.6 94.5999 608.667 94.7999C607.8 93.3333 606.933 91.6666 606 90.1333C606 90.1333 606 90.0666 605.933 90.0666C605.667 89.4666 605.667 88.7999 606 88.2666C606.133 87.8666 606.667 87.5333 606.933 87.3999C606.733 87.2666 607 87.1333 607.067 86.9999C607.4 86.6666 607.533 86.0666 608.067 85.9999C607.933 85.9333 608.067 85.7333 608.133 85.6666C608.333 85.6666 608.467 85.4666 608.6 85.3333C608.8 85.3999 609 85.3999 609.133 85.5999C610.067 86.7333 610.867 87.9333 611.6 89.1999C612.467 90.5999 613.267 91.9999 614.333 93.2666L614.267 93.3333C614.333 93.3999 614.467 93.5999 614.467 93.5999L614.533 93.5333C615.133 94.5999 615.933 95.4666 616.733 96.4666H616.867C618.133 95.1333 619.133 93.6666 620.4 92.4666C620.667 92.0666 621 91.5333 621.467 91.3999L621.533 91.3333L621.467 91.2666C621.733 91.0666 621.867 90.6666 622.2 90.5999L622.133 90.5333C622.267 90.3999 622.4 90.2666 622.533 90.1333C626 86.5333 629.267 82.7999 633.867 80.7333C634.133 80.4666 634.4 80.3999 634.733 80.2666C634.733 80.3999 634.533 80.4666 634.733 80.5333C634.867 80.4666 634.133 81.2666 633.667 81.7333Z" fill="white"/>
<path d="M584.933 96.4666V115.267C584.933 116.6 584.2 117.267 582.067 117.267C581.133 117.267 580.133 117.133 579.6 117V97.1333C579.6 92.6 577.467 89.9333 573.333 89.9333C569.867 89.9333 567 92.3333 565.867 94.8V115.333C565.867 116.667 565.133 117.333 563 117.333C562.067 117.333 561.067 117.2 560.533 117.067V97.1333C560.533 92.6 558.4 89.9333 554.267 89.9333C550.8 89.9333 547.933 92.3333 546.8 94.8V115.333C546.8 116.667 546.067 117.333 543.933 117.333C543 117.333 542 117.2 541.467 117.067V85.7333C542 85.6 543 85.4666 544 85.4666C546 85.4666 546.733 86.2666 546.733 87.6V89.7333C548.733 87.0666 551.867 85.1333 555.667 85.1333C559.8 85.1333 563.067 87.2 564.733 90.8C566.867 87.5333 570.133 85.1333 574.733 85.1333C581.4 85.1333 584.933 90.1333 584.933 96.4666Z" fill="white"/>
<path d="M592.4 78.6666C592.4 76.7333 593.934 75.2666 595.8 75.2666C597.734 75.2666 599.267 76.6666 599.267 78.6666C599.267 80.3999 597.8 82.0666 595.8 82.0666C593.934 81.9999 592.4 80.3999 592.4 78.6666ZM593.134 117.067V87.4666C593.134 86.1999 593.867 85.4666 596 85.4666C596.933 85.4666 597.867 85.5999 598.4 85.7333V115.267C598.4 116.6 597.734 117.267 595.6 117.267C594.667 117.333 593.6 117.2 593.134 117.067Z" fill="white"/>
<path d="M230.933 135.267C231.867 135.733 233.8 136.333 236.267 136.4C240.467 136.467 242.733 134.867 244.4 131.133L266.8 81.2668C265.867 80.8001 263.8 80.2001 262.133 80.2001C259.267 80.1334 255.4 80.7334 252.933 86.6001L245.667 103.667L231.467 80.5334C230.533 80.2668 228.267 79.8668 226.667 79.8668C221.6 79.8668 218.8 81.7334 215.933 84.8668L202.067 99.9334L213.2 117.4C215.267 120.6 217.933 122.2 222.333 122.2C225.2 122.2 227.6 121.533 228.733 121L215.333 100.933L224.8 90.8668L240.4 115.267L230.933 135.267ZM201.533 116.4C201.533 120.067 200.067 122.2 192.867 122.2C191.933 122.2 191.067 122.133 190.267 122V73.2001C190.267 69.4668 191.533 65.6001 198.8 65.6001C199.733 65.6001 200.667 65.6668 201.533 65.8668V116.4ZM186.667 109C186.667 115.867 182.2 120.867 173.067 121.867C166.467 122.6 156.867 121.733 152.333 121.2C152.2 120.467 152.067 119.533 152.067 118.8C152.067 112.8 155.267 111.467 158.333 111.467C161.467 111.467 166.467 112 170.2 112C174.267 112 175.533 110.6 175.533 109.333C175.533 107.6 173.933 106.933 170.733 106.267L162.067 104.6C154.867 103.267 151 98.2668 151 93.0001C151 86.6001 155.533 81.2001 164.467 80.2668C171.2 79.5334 179.467 80.3334 184 80.9334C184.133 81.6668 184.267 82.4668 184.267 83.2668C184.267 89.2668 181.133 90.5334 178.067 90.5334C175.733 90.5334 172.133 90.1334 167.933 90.1334C163.733 90.1334 162 91.2668 162 92.7334C162 94.2668 163.667 94.8668 166.333 95.3334L174.6 96.8668C183 98.2668 186.667 103.067 186.667 109Z" fill="white"/>
<path d="M350.267 87.5333C345.267 87.5333 340.6 90.4667 338.467 94.6667V108.267C340.6 112.533 345.2 115.4 350.267 115.4C357.667 115.4 363.133 109.733 363.133 101.4C363.133 93.2 357.667 87.5333 350.267 87.5333ZM395.2 87.5333C388.2 87.5333 382.4 92.8 382.4 101.467C382.4 110 388.2 115.467 395.2 115.467C402.267 115.467 408.067 110.067 408.067 101.467C408.067 92.8 402.267 87.5333 395.2 87.5333ZM518.933 61H284.133C281.2 61 278.8 63.4 278.8 66.3333V135.667C278.8 138.6 281.2 141 284.133 141H519C521.933 141 524.333 138.6 524.333 135.667V66.3333C524.267 63.4 521.867 61 518.933 61ZM308.733 121.067C303.867 121.067 297.8 119.867 294.133 118.467C293.667 115.2 294.667 113.467 296.6 113.467C298.4 113.467 302.8 115.4 308.933 115.4C315.4 115.4 317.8 113.133 317.8 110.133C317.8 108 316.867 106.133 311.067 104.533L304.4 102.733C297 100.8 294.133 97.0667 294.133 92.5333C294.133 86.8667 298.6 81.8667 308.733 81.8667C313.267 81.8667 318.933 82.8667 322.4 84.2C323 87.4 322 89.1333 320.067 89.1333C318.333 89.1333 314.4 87.4667 308.867 87.4667C302.867 87.4667 300.667 89.5333 300.667 92.2C300.667 94.0667 301.533 95.8 306.867 97.3333L313.667 99.2C321.267 101.333 324.333 104.867 324.333 109.867C324.267 115.8 319.733 121.067 308.733 121.067ZM351.533 121.067C345.867 121.067 341.267 118.4 338.467 114.6V130.467C338.467 131.933 337.6 132.933 335.067 132.933C333.8 132.933 332.6 132.8 332 132.6V82.6C332.6 82.4667 333.8 82.2667 335.067 82.2667C337.6 82.2667 338.467 83.2 338.467 84.7333V88.3333C341.2 84.5333 345.867 81.8667 351.533 81.8667C361.067 81.8667 369.667 89.2 369.667 101.4C369.667 113.8 361 121.067 351.533 121.067ZM395.2 121.067C384.133 121.067 375.867 112.6 375.867 101.467C375.867 90.2667 384.133 81.9333 395.2 81.9333C406.333 81.9333 414.6 90.2667 414.6 101.467C414.6 112.6 406.333 121.067 395.2 121.067ZM442.067 88.5333C436.667 88.5333 432.067 91.0667 429.267 96.9333V118.2C429.267 119.8 428.4 120.667 425.8 120.667C424.733 120.667 423.467 120.533 422.8 120.333V82.6C423.4 82.4667 424.667 82.2667 425.8 82.2667C428.4 82.2667 429.267 83.2 429.267 84.7333V90C432.933 84.4 438.533 81.6 445.533 82.5333C445.6 83.0667 445.867 84.2667 445.867 85.4667C445.867 88 444.733 88.5333 442.067 88.5333ZM474.133 118.467C470.867 120.067 467.067 121.067 463.267 121.067C455.8 121.067 451.333 116.667 451.333 109.333V76.9333C451.333 75.2667 452.267 74.2 454.8 74.2C455.867 74.2 457.133 74.4667 457.8 74.6V82.8H472.467C472.533 83.3333 472.733 84.4667 472.733 85.4C472.733 87.6667 471.8 88.4667 470.4 88.4667H457.867V108.933C457.867 113.333 459.933 115.467 464.067 115.467C467.867 115.467 469.933 113.8 471.733 113.8C473.533 113.8 474.533 115.333 474.133 118.467ZM493.2 121.067C488.333 121.067 482.267 119.867 478.6 118.467C478.133 115.2 479.133 113.467 481.067 113.467C482.867 113.467 487.267 115.4 493.4 115.4C499.867 115.4 502.267 113.133 502.267 110.133C502.267 108 501.333 106.133 495.533 104.533L488.867 102.733C481.467 100.8 478.6 97.0667 478.6 92.5333C478.6 86.8667 483.067 81.8667 493.2 81.8667C497.733 81.8667 503.4 82.8667 506.867 84.2C507.467 87.4 506.467 89.1333 504.533 89.1333C502.8 89.1333 498.867 87.4667 493.333 87.4667C487.333 87.4667 485.133 89.5333 485.133 92.2C485.133 94.0667 486 95.8 491.333 97.3333L498.133 99.2C505.733 101.333 508.8 104.867 508.8 109.867C508.733 115.8 504.2 121.067 493.2 121.067Z" fill="white"/>
</g>
<defs>
<clipPath id="clip0_1217_2208">
<rect width="498.933" height="80" fill="white" transform="translate(151 61)"/>
</clipPath>
</defs>
</svg>
